<svg width="139" height="139" viewBox="0 0 139 139" fill="none" xmlns="http://www.w3.org/2000/svg">
<path d="M55.6302 1.73114C34.5269 6.31962 17.2254 19.5875 7.85834 38.3285C2.34832 49.4404 0.640213 56.7377 0.640213 69.5081C0.585113 79.7354 1.52182 85.2637 4.49723 93.2798C9.78685 107.432 20.311 120.7 31.9371 127.776L34.9677 129.601L37.2268 128.716C38.7145 128.108 40.1471 127.942 41.4695 128.163C44.9408 128.771 45.4367 129.269 45.4367 132.033C45.4367 134.355 45.5469 134.576 47.4203 135.35C48.4672 135.792 50.2855 136.235 51.3875 136.29L53.4262 136.401L54.2527 132.918C55.1894 128.882 56.7873 126.892 59.5975 126.394C62.1321 125.897 62.3525 126.339 62.7933 132.199C62.9586 134.797 63.2341 137.285 63.3994 137.727C63.73 138.778 80.0947 138.28 85.3844 137.009C111.943 130.651 132.771 108.427 137.509 81.3939C138.446 76.142 138.446 63.04 137.509 57.6222C134.368 39.4894 122.687 21.7436 107.149 11.6268C99.9308 6.92774 91.776 3.55547 83.1804 1.73114C76.5132 0.349061 62.0219 0.349061 55.6302 1.73114ZM76.5683 8.64151C90.9495 10.6317 101.639 15.773 111.888 25.6687C121.53 35.0115 127.812 47.1185 129.96 60.7734C131.062 67.739 131.062 71.6641 130.016 78.4086C127.316 95.1041 119.216 108.593 105.496 119.097C100.978 122.58 91.1148 127.389 85.4946 128.937C80.7009 130.209 70.4522 131.536 69.9012 130.983C69.6808 130.817 69.8461 125.952 70.2318 120.258C71.2236 104.447 71.3338 106.05 69.24 105.94C66.8156 105.829 66.3197 105.221 65.7687 102.014C65.1626 98.2 66.4299 95.7675 69.5155 94.6618C71.4991 93.9984 71.9399 93.5562 72.2154 92.1188C72.9317 88.3596 72.4358 87.4198 69.1298 86.3694C67.4768 85.8166 65.3279 84.9873 64.3361 84.4898C62.4627 83.4947 59.5424 80.3435 59.9832 79.846C60.1485 79.6802 61.9668 80.3435 64.0055 81.2834C68.9645 83.55 73.097 84.1581 79.5988 83.55C85.164 82.9971 89.2965 83.4394 96.4595 85.2637C103.237 86.9775 105.165 87.1434 109.353 86.093C115.083 84.7109 116.185 82.2785 113.596 76.8607C112.218 73.9307 107.645 69.8951 92.9331 58.7832C88.3047 55.3004 84.5579 52.1492 84.5579 51.8175C84.5579 51.4305 85.0538 50.7119 85.715 50.1038C86.3762 49.5509 87.4782 48.003 88.2496 46.6762C89.572 44.4649 89.6271 43.9121 89.2965 40.0422C89.1312 37.7204 88.7455 35.6196 88.47 35.3432C86.9823 33.8506 79.8192 38.8813 77.6703 42.917C76.2928 45.46 75.0255 45.46 73.2623 42.8617C72.1603 41.1479 71.8848 40.0975 71.8848 37.2781C71.8848 33.1872 70.9481 30.6441 68.8543 28.9857C66.9258 27.4377 65.2728 27.4377 63.3994 28.9304C61.4158 30.4783 61.526 32.7449 63.6198 35.1773C68.138 40.2634 67.9176 47.1738 63.4545 42.8064C62.4627 41.8113 60.8097 39.6 59.7628 37.8862C55.4649 30.5336 52.4344 28.1011 49.2937 29.4279C47.806 30.036 46.5387 31.9709 46.5387 33.6294C46.5387 35.6196 48.4672 37.7204 51.3324 38.8813C54.3078 40.0975 56.4567 42.143 56.4567 43.7462C56.4567 44.2438 55.5751 45.3494 54.4731 46.2339C53.3711 47.1185 51.9385 48.9981 51.2773 50.4907L50.01 53.1443L47.6958 50.7671C44.1694 47.1738 41.3042 45.9575 36.4554 45.9575C29.8984 45.9575 27.8597 47.3396 31.0004 49.7168C31.9922 50.4355 33.6453 53.089 35.4085 56.7377C38.439 62.9294 40.3675 64.9196 44.2796 65.6936C45.2714 65.9147 46.2081 66.357 46.3183 66.6887C46.4836 67.0756 44.9408 73.8202 42.9021 81.6703C38.2186 100.135 38.3839 98.9739 40.092 99.3609C42.5164 99.969 43.7286 102.346 44.8306 108.648C45.2163 110.639 45.1061 111.468 44.5551 112.076C43.6735 112.905 38.9349 113.679 36.0697 113.347C34.2514 113.182 34.0861 113.292 33.4249 115.504C32.984 116.83 32.3228 117.881 31.9371 117.881C31.2208 117.881 24.7741 111.8 22.1844 108.648C12.9276 97.5366 7.30734 80.8411 8.18895 67.2968C9.34605 50.7671 14.7459 38.3285 25.821 26.7743C35.133 17.0445 47.9713 10.5211 61.4158 8.75208C68.8543 7.75698 69.9563 7.75698 76.5683 8.64151ZM59.9832 89.4652C60.5893 91.0132 60.3138 94.6618 59.5424 96.2098C58.0547 99.0292 55.6302 100.854 52.8752 101.13C50.4508 101.462 50.2855 101.351 47.9162 98.8633C46.5387 97.4813 45.4367 95.8228 45.4367 95.27C45.4367 93.6667 48.1366 90.792 50.6712 89.6311C53.5364 88.3043 59.4873 88.1937 59.9832 89.4652ZM63.0688 110.141C64.0055 111.965 64.8871 114.564 65.0524 115.891C65.383 117.991 65.2177 118.434 63.8402 119.76C61.6913 121.806 60.0383 122.58 56.5669 123.354C51.7732 124.349 49.8998 124.183 49.2386 122.635C48.4121 120.811 49.0733 116.72 50.561 114.453C51.663 112.85 59.8179 106.824 60.975 106.824C61.1954 106.824 62.1321 108.317 63.0688 110.141Z" fill="#FFD464"/>
</svg>
