<?xml version="1.0" standalone="no"?>
<!DOCTYPE svg PUBLIC "-//W3C//DTD SVG 1.1//EN" "http://www.w3.org/Graphics/SVG/1.1/DTD/svg11.dtd" >
<svg>
<metadata>
Created by FontForge 1853326994 at Sun Oct 13 05:13:32 2013
 By U-zoghal-god\zoghal,S-1-5-21-2758449068-1321902542-3097588897-1003
(c) 1392 Rita Development Corpertion(RitaCo)
</metadata>
<defs>
<font id="WebRoya" horiz-adv-x="0" >
  <font-face 
    font-family="Web Roya"
    font-weight="400"
    font-stretch="normal"
    units-per-em="2048"
    panose-1="0 0 4 0 0 0 0 0 0 0"
    ascent="1638"
    descent="-410"
    bbox="-183 -1208 2233 2078"
    underline-thickness="60"
    underline-position="-920"
    unicode-range="U+0020-FEFC"
  />
<missing-glyph horiz-adv-x="1024" 
d="M256 128h512v1048h-512v-1048zM128 0v1304h768v-1304h-768z" />
    <glyph glyph-name="uFC60" unicode="&#x651;&#x64e;" arabic-form="isolated" 
d="M496 1617q21 -70 21 -132q0 -173 -138 -173q-61 0 -103 96q-74 -140 -163.5 -140t-89.5 107q0 71 44 148h49q-19 -58 -19 -89q0 -53 56 -53q79 0 104 173l61 22q3 -76 9 -98q15 -57 64 -57q59 0 59 78q0 40 -18 97zM522 1706l-451 -121l-18 74l451 124z" />
    <glyph glyph-name="uFC61" unicode="&#x651;&#x64f;" arabic-form="isolated" 
d="M524 1625q21 -70 21 -132q0 -173 -138 -173q-61 0 -103 96q-74 -140 -163.5 -140t-89.5 107q0 71 44 148h49q-19 -58 -19 -89q0 -53 56 -53q79 0 104 173l61 22q3 -76 9 -98q15 -57 64 -57q59 0 59 78q0 40 -18 97zM382 1809q78 55 78 107.5t-63 52.5q-26 0 -50.5 -29.5
t-24.5 -56.5q0 -46 60 -74zM534 1944q0 -107 -101 -189l65 -45l-48 -52q-32 19 -69 61q-134 -94 -303 -130l-30 65q185 60 261 124q-41 58 -41 103.5t47.5 105.5t98.5 60t85.5 -29t34.5 -74z" />
    <glyph glyph-name="uE818" unicode="&#x651;&#x64b;" 
d="M485 1654q21 -70 21 -132q0 -173 -138 -173q-61 0 -103 96q-74 -140 -163.5 -140t-89.5 107q0 71 44 148h49q-19 -58 -19 -89q0 -53 56 -53q79 0 104 173l61 22q3 -76 9 -98q15 -57 64 -57q59 0 59 78q0 40 -18 97zM495 1923l-451 -121l-18 74l451 124zM495 1758
l-451 -121l-18 74l451 124z" />
    <glyph glyph-name="uFC5E" unicode="&#x651;&#x64c;" arabic-form="isolated" 
d="M488 1670q21 -70 21 -132q0 -173 -138 -173q-61 0 -103 96q-74 -140 -163.5 -140t-89.5 107q0 71 44 148h49q-19 -58 -19 -89q0 -53 56 -53q79 0 104 173l61 22q3 -76 9 -98q15 -57 64 -57q59 0 59 78q0 40 -18 97zM441 1948q0 54 -64 54q-23 0 -46 -26.5t-23 -50.5
q0 -54 51 -80q82 40 82 103zM510 1978q0 -104 -97 -187l65 -44l-51 -56q-47 27 -73 56q-136 -88 -298 -126l-32 66q10 4 28 12q64 56 64 106q0 28 -29.5 28t-66.5 -24l-19 44q35 41 107 41t72 -64q0 -57 -47 -104q-1 -4 4 -6q109 35 157 76q-47 57 -47 109.5t47.5 112.5
t98.5 60t84 -28t33 -72z" />
    <glyph glyph-name="uFC62" unicode="&#x651;&#x650;" arabic-form="isolated" 
d="M499 1868q21 -70 21 -132q0 -173 -138 -173q-61 0 -103 96q-74 -140 -163.5 -140t-89.5 107q0 71 44 148h49q-19 -58 -19 -89q0 -53 56 -53q79 0 104 173l61 22q3 -76 9 -98q15 -57 64 -57q59 0 59 78q0 40 -18 97zM523 1438l-451 -121l-18 73l451 125z" />
    <glyph glyph-name="uFC5F" unicode="&#x651;&#x64d;" arabic-form="isolated" 
d="M491 2048q21 -70 21 -132q0 -173 -138 -173q-61 0 -103 96q-74 -140 -163.5 -140t-89.5 107q0 71 44 148h49q-19 -58 -19 -89q0 -53 56 -53q79 0 104 173l61 22q3 -76 9 -98q15 -57 64 -57q59 0 59 78q0 40 -18 97zM513 1625l-451 -121l-18 74l451 124zM513 1460
l-451 -120l-18 73l451 125z" />
    <glyph glyph-name="uFEF5" unicode="&#xfedf;&#xfe82;" horiz-adv-x="1119" arabic-form="isolated" 
d="M229 1430l217 -23q112 0 208 89l39 -68q-84 -133 -220 -133q-38 0 -112 13t-125 13t-113 -47l-61 72q78 84 167 84zM946 147q14 11 14 55t-46 128q-45 -61 -89.5 -109.5t-99.5 -72.5q54 -21 128 -21t93 20zM1102 1273q14 -193 14 -292q0 -383 -128 -558q44 -91 56.5 -131
t12.5 -125q0 -199 -287 -199q-167 0 -314 53l24 130h3q104 0 217.5 80t156.5 179q-89 148 -262.5 317.5t-359.5 261.5l31 184q184 -103 359.5 -287t295.5 -372q68 134 68 417q0 111 -14 293z" />
    <glyph glyph-name="uFEF6" unicode="&#xfee0;&#xfe82;" horiz-adv-x="1381" arabic-form="final" 
d="M250 1430l217 -23q112 0 208 89l39 -68q-84 -133 -220 -133q-38 0 -112 13t-125 13t-113 -47l-61 72q78 84 167 84zM1415 1h-66q-136 0 -218 144q-62 109 -80 265q-99 -391 -588 -464l-59 103q158 35 316 121q157.006 85.4591 157.006 173.881l-0.00628662 1.11938
q0 132 -259 351q-207 174 -382 262l30 170q242 -143 447.5 -343t241.5 -361q47 169 47 400.5t-15 394.5l132 50l1 -530q0 -266 55 -427.5t192 -161.5h48v-149z" />
    <glyph glyph-name="uFEF7" unicode="&#xfedf;&#xfe84;" horiz-adv-x="1119" arabic-form="isolated" 
d="M515 1410l-385 -97v67l100 41q-50 49 -50 101.5t46 98.5t108 46t110 -38l-23 -57q-44 15 -82.5 15t-67.5 -15.5t-29 -38.5q0 -69 118 -69q17 0 155 42v-96zM946 147q14 11 14 55t-46 128q-45 -61 -89.5 -109.5t-99.5 -72.5q54 -21 128 -21t93 20zM1102 1273
q14 -193 14 -292q0 -383 -128 -558q44 -91 56.5 -131t12.5 -125q0 -199 -287 -199q-167 0 -314 53l24 130h3q104 0 217.5 80t156.5 179q-89 148 -262.5 317.5t-359.5 261.5l31 184q184 -103 359.5 -287t295.5 -372q68 134 68 417q0 111 -14 293z" />
    <glyph glyph-name="uFEF8" unicode="&#xfee0;&#xfe84;" horiz-adv-x="1341" arabic-form="final" 
d="M504 1385l-384 -97v67l100 41q-51 49 -51 101t46 98.5t108 46.5t111 -38l-23 -57q-44 15 -82 15t-68 -16t-30 -38q0 -69 119 -69q16 0 154 42v-96zM1373 1h-66q-136 0 -218 144q-62 109 -80 265q-99 -391 -588 -464l-59 103q158 35 316 121
q157.006 85.4591 157.006 173.881l-0.00628662 1.11938q0 132 -259 351q-207 174 -382 262l30 170q242 -143 447 -343t242 -361q47 169 47 400.5t-15 394.5l132 50l1 -530q0 -266 55 -427.5t192 -161.5h48v-149z" />
    <glyph glyph-name="uFEF9" unicode="&#xfedf;&#xfe88;" horiz-adv-x="1013" arabic-form="isolated" 
d="M618 -385l-385 -98v67l100 41q-50 49 -50 101.5t46 98.5t108 46t110 -38l-23 -57q-44 15 -82.5 15t-68 -15t-29.5 -39q0 -69 119 -69q17 0 155 42v-95zM841 147q14 11 14 55t-46 128q-45 -61 -89.5 -109.5t-99.5 -72.5q54 -21 128 -21t93 20zM997 1273q14 -193 14 -292
q0 -383 -128 -558q44 -91 56.5 -131t12.5 -125q0 -199 -287 -199q-167 0 -314 53l24 130h3q104 0 217.5 80t156.5 179q-89 148 -262.5 317.5t-359.5 261.5l31 184q184 -103 359.5 -287t295.5 -372q68 134 68 417q0 111 -14 293z" />
    <glyph glyph-name="uFEFA" unicode="&#xfee0;&#xfe88;" horiz-adv-x="1278" arabic-form="final" 
d="M691 -417l-384 -98v68l99 41q-50 49 -50 101.5t45.5 98t108 45.5t111.5 -37l-23 -57q-45 14 -83 14t-67.5 -15t-29.5 -38q0 -69 119 -69q16 0 154 42v-96zM1310 1h-66q-136 0 -218 144q-62 109 -80 265q-99 -391 -588 -464l-59 103q157 35 315 121t158 175
q0 132 -259 351q-207 174 -382 262l30 170q243 -144 447.5 -343t241.5 -361q47 169 47 400.5t-15 394.5l131 50l2 -530q0 -266 55 -427.5t192 -161.5h48v-149z" />
    <glyph glyph-name="uFEFB" unicode="&#xfedf;&#xfe8e;" horiz-adv-x="1013" arabic-form="isolated" 
d="M841 147q14 11 14 55t-46 128q-45 -61 -89.5 -109.5t-99.5 -72.5q54 -21 128 -21t93 20zM997 1273q14 -193 14 -292q0 -383 -128 -558q44 -91 56.5 -131t12.5 -125q0 -199 -287 -199q-167 0 -314 53l24 130h3q104 0 217.5 80t156.5 179q-89 148 -262.5 317.5
t-359.5 261.5l31 184q184 -103 359.5 -287t295.5 -372q68 134 68 417q0 111 -14 293z" />
    <glyph glyph-name="uFEFC" unicode="&#xfee0;&#xfe8e;" horiz-adv-x="1278" arabic-form="final" 
d="M1310 1h-66q-136 0 -218 144q-62 109 -80 265q-99 -391 -588 -464l-59 103q157 35 315 121t158 175q0 132 -259 351q-207 174 -382 262l30 170q243 -144 447.5 -343t241.5 -361q47 169 47 400.5t-15 394.5l131 50l2 -530q0 -266 55 -427.5t192 -161.5h48v-149z" />
    <glyph glyph-name="uFDF2" unicode="&#xfedf;&#xfee0;&#xfeea;" horiz-adv-x="1460" arabic-form="isolated" 
d="M1192 1208q15 -51 15 -96q0 -127 -101 -127q-47 0 -77 71q-55 -102 -121.5 -102t-66.5 78q0 51 33 108h37q-14 -42 -14 -65q0 -38 41 -38q59 0 78 125l44 16q5 -112 54 -112q44 0 44 56q0 29 -13 70zM1051 1241l-39 -19l-37 187l76 36v-204zM578 374l-6 173
q-64 -10 -157.5 -64.5t-93.5 -107.5q0 -35 103.5 -35t153.5 34zM378 198q-184 0 -184 127q0 185 385 328l1 142l95 46v-369q0 -175 8 -212q26 -120 127 -120t133 94q18 53 18 172v462l107 40v-348q0 -177 19 -250q39 -150 164 -150q95 0 95 183q0 254 -44 596l123 58
q33 -427 33 -679q0 -147 -68 -227t-144 -80q-151 0 -209 145q-72 -171 -226 -171q-219 0 -224 282q-83 -69 -209 -69z" />
    <glyph glyph-name="u0622" unicode="&#x622;" horiz-adv-x="730" arabic-form="isolated" 
d="M323 1478l218 -23q112 0 208 88l39 -67q-35 -56 -96.5 -95t-112 -39t-124.5 13t-125 13t-113 -47l-61 73q79 84 167 84zM526 29l-101 -28l-31 1217l132 51v-1240z" />
    <glyph glyph-name="Hcircumflex" unicode="&#x622;" horiz-adv-x="705" arabic-form="final" 
d="M313 1467l217 -23q112 0 208 88l39 -67q-35 -56 -96 -94.5t-111.5 -38.5t-124.5 13t-125 13t-113 -47l-61 72q78 84 167 84zM736 1h-62q-155 0 -220 135q-45 93 -53 275q-3 65 -6.5 317.5t-21.5 472.5l132 68l18 -831q3 -128 28 -190q39 -98 144 -98h41v-149z" />
    <glyph glyph-name="u0623" unicode="&#x623;" horiz-adv-x="525" arabic-form="isolated" 
d="M564 1387l-384 -97v67l99 41q-50 49 -50 101.5t46 98.5t108 46t111 -38l-23 -57q-45 15 -82.5 15t-67.5 -16t-30 -38q0 -69 119 -69q16 0 154 42v-96zM432 29l-101 -28l-32 1217l133 51v-1240z" />
    <glyph glyph-name="uFE84" unicode="&#x623;" horiz-adv-x="621" arabic-form="final" 
d="M553 1387l-384 -97v67l100 41q-51 49 -51 101t47 98.5t108.5 46.5t109.5 -38l-23 -57q-44 15 -82 15t-68 -16t-30 -38q0 -69 119 -69q17 0 154 42v-96zM652 1h-62q-155 0 -220 135q-45 93 -53 275q-3 65 -6.5 317.5t-21.5 472.5l132 68l18 -831q3 -128 28 -190
q39 -98 144 -98h41v-149z" />
    <glyph glyph-name="u0624" unicode="&#x624;" horiz-adv-x="709" arabic-form="isolated" 
d="M643 820l-385 -97v67l100 41q-50 49 -50 101t46 98.5t108 46.5t110 -38l-23 -57q-44 15 -81.5 15t-67.5 -16t-30 -38q0 -69 118 -69q17 0 155 42v-96zM559 287q-8 156 -111 156q-36 0 -61.5 -36.5t-25.5 -74.5q0 -78 98 -78q52 0 100 33zM702 223q0 -213 -135 -379.5
t-344 -256.5l-94 105q203 110 292 188q138 121 163 272q-60 -39 -144.5 -39t-137 43t-52.5 138t61 199.5t149 104.5q119 0 187 -134q55 -108 55 -241z" />
    <glyph glyph-name="uFE86" unicode="&#x624;" horiz-adv-x="822" arabic-form="final" 
d="M669 705l-384 -98v67l99 41q-50 49 -50 102t45.5 98.5t108 45.5t111.5 -38l-23 -57q-45 15 -83 15t-67.5 -15t-29.5 -38q0 -70 119 -70q16 0 154 42v-95zM361 204q0 -65 124 -65q50 0 77 13q-4 58 -32 113t-72 55t-70.5 -39t-26.5 -77zM856 1h-162q-65 -364 -471 -538
l-94 105q200 110 288 183q135 113 159 245q-50 -9 -103 -9q-224 0 -224 160q0 97 61 212t150 115q113 0 177 -111q49 -84 62 -213h157v-149z" />
    <glyph glyph-name="u0625" unicode="&#x625;" horiz-adv-x="599" arabic-form="isolated" 
d="M593 -360l-384 -98v67l100 41q-51 49 -51 101.5t46 98.5t108 46t111 -38l-23 -56q-44 14 -82.5 14t-68 -15t-29.5 -38q0 -70 119 -70q17 0 154 42v-95zM463 29l-101 -28l-31 1217l132 51v-1240z" />
    <glyph glyph-name="uFE88" unicode="&#x625;" horiz-adv-x="652" arabic-form="final" 
d="M625 -318l-384 -98v67l99 41q-50 49 -50 102t45.5 98.5t108 45.5t111.5 -38l-24 -56q-44 14 -82 14t-67.5 -15t-29.5 -38q0 -70 119 -70q16 0 154 42v-95zM684 1h-62q-156 0 -221 134q-44 91 -52 276q-3 65 -6.5 317.5t-22.5 472.5l133 68q5 -346 18 -831q3 -132 27 -190
q40 -98 145 -98h41v-149z" />
    <glyph glyph-name="u0626" unicode="&#x626;" horiz-adv-x="1349" arabic-form="isolated" 
d="M605 640l-384 -98v67l99 41q-50 49 -50 101.5t46 98.5t108 46t111 -38l-24 -57q-44 15 -82.5 15t-67.5 -15.5t-29 -38.5q0 -69 119 -69q16 0 154 42v-95zM1349 660l-49 -132q-48 21 -129 21t-186.5 -67.5t-127.5 -156.5q-2 -8 -2 -19q0 -47 117 -63q77 -5 154 -11
q181 -20 181 -170t-219 -279t-430 -129t-337.5 98t-126.5 286.5t91 333.5l98 -43q-69 -122 -69 -233q0 -292 363 -292q123 0 260.5 46.5t228.5 122.5q44 37 44 65q0 37 -65 45q-272 32 -309 46q-84 31 -84 145q0 159 150.5 293t311.5 134q78 0 135 -41z" />
    <glyph glyph-name="uFE8A" unicode="&#x626;" horiz-adv-x="1206" arabic-form="final" 
d="M605 430l-384 -98v67l99 41q-50 49 -50 101.5t46 98.5t108 46t111 -38l-24 -57q-44 15 -82.5 15t-67.5 -15.5t-29 -38.5q0 -69 119 -69q16 0 154 42v-95zM1237 1h-230q-148 0 -148 -33q0 -21 126.5 -47.5t140.5 -33.5q73 -37 73 -124q0 -136 -218 -232q-180 -79 -335 -79
q-210 0 -331 102t-121 308q0 149 86 312l109 -37q-64 -132 -64 -242q0 -292 337 -292q261 0 418 119q15 11 15 24t-22 16q-198 30 -266 61q-23 11 -39 44t-16 61q0 222 390 222h95v-149z" />
    <glyph glyph-name="uFE8B" unicode="&#x626;" horiz-adv-x="391" arabic-form="initial" 
d="M425 757l-384 -97v67l100 41q-51 49 -51 101.5t45.5 98t108 45.5t111.5 -37l-23 -57q-44 15 -82 15t-68 -16t-30 -38q0 -69 119 -69q17 0 154 42v-96zM352 258q0 -257 -299 -257h-85v149h93q173 0 173 93q0 50 -51 116l-34 44l103 113q100 -112 100 -258z" />
    <glyph glyph-name="uFE8C" unicode="&#x626;" horiz-adv-x="548" arabic-form="medial" 
d="M581 1h-85q-175 0 -230 122q-27 -56 -86.5 -89t-123.5 -33h-85v149h76q75 0 129 36.5t54 107.5v63l102 27q1 -144 46.5 -189t141.5 -45h61v-149zM467 673l-384 -97v67l100 41q-51 49 -51 101.5t45.5 98t108 45.5t111.5 -37l-23 -57q-44 15 -82 15t-68 -16t-30 -38
q0 -69 119 -69q17 0 154 42v-96z" />
    <glyph glyph-name="u0627" unicode="&#x627;" horiz-adv-x="328" arabic-form="isolated" 
d="M327 29l-101 -28l-32 1217l133 51v-1240z" />
    <glyph glyph-name="uFE8E" unicode="&#x627;" horiz-adv-x="526" arabic-form="final" 
d="M558 1h-62q-156 0 -221 134q-44 91 -52 276q-3 65 -6.5 317.5t-22.5 472.5l133 68q6 -436 17 -831q3 -130 28 -190q40 -98 145 -98h41v-149z" />
    <glyph glyph-name="u0628" unicode="&#x628;" horiz-adv-x="1618" arabic-form="isolated" 
d="M1617 280q0 -177 -320 -260q-235 -61 -520 -61t-397 40q-186 66 -186 257q0 105 62 189l94 -29q-38 -69 -38 -130q0 -119 152 -157q76 -19 246 -19h49q178 0 411 32q341 47 341 130q0 72 -89 173l92 117q103 -133 103 -282zM997 -342l-98 -129l-130 88l95 131z" />
    <glyph glyph-name="uFE90" unicode="&#x628;" horiz-adv-x="1739" arabic-form="final" 
d="M1771 1h-63q-176 0 -206 150q-163 -192 -774 -192q-236 0 -348 40q-186 66 -186 257q0 105 62 189l94 -29q-38 -69 -38 -130q0 -120 152 -158q72 -18 246 -18h49q211 0 398 30q306 49 326 162l10 56l82 27q0 -112 24 -162q35 -73 133 -73h39v-149zM997 -342l-98 -129
l-130 88l95 131z" />
    <glyph glyph-name="uFE91" unicode="&#x628;" horiz-adv-x="355" arabic-form="initial" 
d="M314 -279l-98 -128l-130 87l96 131zM352 258q0 -257 -299 -257h-85v149h93q173 0 173 93q0 50 -51 116l-34 44l103 113q100 -112 100 -258z" />
    <glyph glyph-name="uFE92" unicode="&#x628;" horiz-adv-x="548" arabic-form="medial" 
d="M579 1h-85q-175 0 -230 122q-27 -56 -86.5 -89t-123.5 -33h-86v149h77q75 0 129 36.5t54 107.5v63l102 27q1 -145 46 -189.5t142 -44.5h61v-149zM388 -279l-98 -128l-130 87l95 131z" />
    <glyph glyph-name="u067E" unicode="&#x67e;" horiz-adv-x="1618" arabic-form="isolated" 
d="M1617 280q0 -177 -320 -260q-235 -61 -520 -61t-397 40q-186 66 -186 257q0 105 62 189l94 -29q-38 -69 -38 -130q0 -119 152 -157q76 -19 246 -19h49q178 0 411 32q341 47 341 130q0 72 -89 173l92 117q103 -133 103 -282zM704 -319l77 101l111 -81l75 94l110 -78
l-81 -100l-106 78l-75 -92zM833 -498l72 97l110 -80l-75 -95z" />
    <glyph glyph-name="uFB57" unicode="&#x67e;" horiz-adv-x="1739" arabic-form="final" 
d="M1771 1h-63q-176 0 -206 150q-163 -192 -774 -192q-236 0 -348 40q-186 66 -186 257q0 105 62 189l94 -29q-38 -69 -38 -130q0 -120 152 -158q72 -18 246 -18h49q211 0 398 30q306 49 326 162l10 56l82 27q0 -112 24 -162q35 -73 133 -73h39v-149zM683 -319l77 101
l111 -81l75 94l110 -78l-81 -100l-106 78l-75 -92zM812 -498l72 97l110 -80l-75 -95z" />
    <glyph glyph-name="uFB58" unicode="&#x67e;" horiz-adv-x="416" arabic-form="initial" 
d="M59 -277l78 101l110 -81l75 94l110 -78l-81 -100l-106 78l-75 -92zM188 -456l72 97l110 -80l-75 -95zM352 258q0 -257 -299 -257h-85v149h93q173 0 173 93q0 50 -51 116l-34 44l103 113q100 -112 100 -258z" />
    <glyph glyph-name="uFB59" unicode="&#x67e;" horiz-adv-x="548" arabic-form="medial" 
d="M579 1h-85q-175 0 -230 122q-27 -56 -86.5 -89t-123.5 -33h-86v149h77q75 0 129 36.5t54 107.5v63l102 27q1 -145 46 -189.5t142 -44.5h61v-149zM90 -277l78 101l110 -81l76 94l109 -78l-81 -100l-106 78l-74 -92zM220 -456l72 97l109 -80l-74 -95z" />
    <glyph glyph-name="u062A" unicode="&#x62a;" horiz-adv-x="1618" arabic-form="isolated" 
d="M1617 280q0 -177 -320 -260q-235 -61 -520 -61t-397 40q-186 66 -186 257q0 105 62 189l94 -29q-38 -69 -38 -130q0 -119 152 -157q76 -19 246 -19h49q178 0 411 32q341 47 341 130q0 72 -89 173l92 117q103 -133 103 -282zM1070 701l-87 -112l-113 84l-81 -100l-121 87
l91 112l110 -82l78 97z" />
    <glyph glyph-name="uFE96" unicode="&#x62a;" horiz-adv-x="1739" arabic-form="final" 
d="M1771 1h-63q-176 0 -206 150q-163 -192 -774 -192q-236 0 -348 40q-186 66 -186 257q0 105 62 189l94 -29q-38 -69 -38 -130q0 -120 152 -158q72 -18 246 -18h49q211 0 398 30q306 49 326 162l10 56l82 27q0 -112 24 -162q35 -73 133 -73h39v-149zM1070 701l-87 -112
l-113 84l-81 -100l-121 87l91 112l110 -82l78 97z" />
    <glyph glyph-name="uFE97" unicode="&#x62a;" horiz-adv-x="412" arabic-form="initial" 
d="M420 795l-87 -111l-113 84l-81 -100l-121 86l91 112l109 -81l79 96zM352 258q0 -257 -299 -257h-85v149h93q173 0 173 93q0 50 -51 116l-34 44l103 113q100 -112 100 -258z" />
    <glyph glyph-name="uFE98" unicode="&#x62a;" horiz-adv-x="548" arabic-form="medial" 
d="M580 1h-85q-175 0 -230 122q-27 -56 -86.5 -89t-123.5 -33h-85v149h76q75 0 129 36.5t54 107.5v63l102 27q1 -145 46 -189.5t142 -44.5h61v-149zM473 732l-88 -111l-113 84l-81 -100l-121 86l92 112l109 -81l79 96z" />
    <glyph glyph-name="u062B" unicode="&#x62b;" horiz-adv-x="1618" arabic-form="isolated" 
d="M1617 280q0 -177 -320 -260q-235 -61 -520 -61t-397 40q-186 66 -186 257q0 105 62 189l94 -29q-38 -69 -38 -130q0 -119 152 -157q76 -19 246 -19h49q178 0 411 32q341 47 341 130q0 72 -89 173l92 117q103 -133 103 -282zM1031 691l-77 -101l-111 81l-75 -94l-109 77
l80 101l106 -79l75 93zM902 870l-72 -97l-110 80l75 94z" />
    <glyph glyph-name="uFE9A" unicode="&#x62b;" horiz-adv-x="1739" arabic-form="final" 
d="M1771 1h-63q-176 0 -206 150q-163 -192 -774 -192q-236 0 -348 40q-186 66 -186 257q0 105 62 189l94 -29q-38 -69 -38 -130q0 -120 152 -158q72 -18 246 -18h49q211 0 398 30q306 49 326 162l10 56l82 27q0 -112 24 -162q35 -73 133 -73h39v-149zM1031 687l-77 -101
l-111 81l-75 -95l-109 78l80 101l106 -79l75 93zM902 865l-72 -96l-110 80l75 94z" />
    <glyph glyph-name="uFE9B" unicode="&#x62b;" horiz-adv-x="395" arabic-form="initial" 
d="M406 775l-77 -101l-111 81l-75 -94l-109 77l80 101l107 -79l74 93zM277 954l-72 -97l-109 80l74 94zM352 258q0 -257 -299 -257h-85v149h93q173 0 173 93q0 50 -51 116l-34 44l103 113q100 -112 100 -258z" />
    <glyph glyph-name="uFE9C" unicode="&#x62b;" horiz-adv-x="548" arabic-form="medial" 
d="M579 1h-85q-175 0 -230 122q-27 -56 -86.5 -89t-123.5 -33h-86v149h77q75 0 129 36.5t54 107.5v63l102 27q1 -145 46 -189.5t142 -44.5h61v-149zM448 723l-77 -101l-111 81l-75 -95l-109 78l80 101l107 -79l74 92zM319 901l-72 -97l-109 80l74 95z" />
    <glyph glyph-name="u062C" unicode="&#x62c;" horiz-adv-x="1153" arabic-form="isolated" 
d="M871 -227l-98 -128l-130 87l95 131zM1242 -702q-219 -69 -413 -69q-277 0 -439 102q-196 123 -196 385q0 217 175 393q138 139 361 231q-242 71 -279 71q-66 0 -123 -95l-96 42q86 203 204 203q90 0 294.5 -60t283.5 -60t133 5l-38 -150q-164 -2 -291 -48
q-202 -73 -331 -190q-164 -148 -164 -331q0 -350 546 -350q184 0 334 47z" />
    <glyph glyph-name="uFE9E" unicode="&#x62c;" horiz-adv-x="1204" arabic-form="final" 
d="M850 -248l-98 -128l-130 87l95 131zM1242 -702q-202 -69 -413 -69q-277 0 -439 102q-196 123 -196 385q0 217 180 397q144 144 357 226q-243 72 -280 72q-66 0 -123 -95l-96 42q86 203 204 203q85 0 289.5 -60t286 -60t135.5 5l-38 -150q-137 -2 -201 -27q11 -76 71 -101
q44 -18 154 -18h102v-149h-141q-108 0 -180 70.5t-81 179.5q-204 -69 -339 -189q-169 -150 -169 -335q0 -350 544 -350q202 0 334 47z" />
    <glyph glyph-name="uFE9F" unicode="&#x62c;" horiz-adv-x="954" arabic-form="initial" 
d="M692 -227l-98 -128l-130 87l96 131zM954 419l-34 -143q-177 -1 -300 -73q-60 -37 -218 -131q-124 -71 -321 -71h-113v149h119q135 0 211 24.5t181 83.5t157 78q-57 14 -171 66.5t-155.5 52.5t-124.5 -83l-85 49q35 60 97.5 119t121.5 59t196 -64t166 -74q119 -42 250 -42
h23z" />
    <glyph glyph-name="uFEA0" unicode="&#x62c;" horiz-adv-x="1100" arabic-form="medial" 
d="M693 -227l-98 -128l-130 87l96 131zM1131 1h-158q-135 0 -194 90q-17 26 -53 147l-304 -157q-155 -80 -330 -80h-122v149h118q175 0 278 47.5t300 139.5q-86 18 -207 72.5t-149 54.5q-59 0 -118 -80l-91 48q100 186 197 186q67 0 201.5 -61t175.5 -75q138 -47 283 -47
q30 0 60 2l-34 -140q-119 -1 -187 -33q19 -71 82 -97q43 -18 131 -18h121v-148z" />
    <glyph glyph-name="u0686" unicode="&#x686;" horiz-adv-x="1153" arabic-form="isolated" 
d="M561 -181l78 101l110 -81l75 95l110 -78l-81 -101l-106 79l-75 -92zM690 -359l72 96l110 -79l-75 -95zM1242 -702q-219 -69 -413 -69q-277 0 -439 102q-196 123 -196 385q0 217 175 393q138 139 361 231q-242 71 -279 71q-66 0 -123 -95l-96 42q86 203 204 203
q90 0 294.5 -60t283.5 -60t133 5l-38 -150q-164 -2 -291 -48q-202 -73 -331 -190q-164 -148 -164 -331q0 -350 546 -350q184 0 334 47z" />
    <glyph glyph-name="uFB7B" unicode="&#x686;" horiz-adv-x="1204" arabic-form="final" 
d="M540 -223l78 101l110 -81l75 95l110 -78l-81 -101l-106 79l-75 -92zM669 -401l72 96l110 -79l-75 -95zM1242 -702q-202 -69 -413 -69q-277 0 -439 102q-196 123 -196 385q0 217 180 397q144 144 357 226q-243 72 -280 72q-66 0 -123 -95l-96 42q86 203 204 203
q85 0 289.5 -60t286 -60t135.5 5l-38 -150q-137 -2 -201 -27q11 -76 71 -101q44 -18 154 -18h102v-149h-141q-108 0 -180 70.5t-81 179.5q-204 -69 -339 -189q-169 -150 -169 -335q0 -350 544 -350q202 0 334 47z" />
    <glyph glyph-name="uFB7C" unicode="&#x686;" horiz-adv-x="954" arabic-form="initial" 
d="M376 -252l78 101l110 -81l76 94l109 -77l-81 -101l-106 79l-75 -93zM505 -431l73 97l109 -80l-75 -94zM954 419l-34 -143q-177 -1 -300 -73q-60 -37 -218 -131q-124 -71 -321 -71h-113v149h119q135 0 211 24.5t181 83.5t157 78q-57 14 -171 66.5t-155.5 52.5t-124.5 -83
l-85 49q35 60 97.5 119t121.5 59t196 -64t166 -74q119 -42 250 -42h23z" />
    <glyph glyph-name="uFB7D" unicode="&#x686;" horiz-adv-x="1100" arabic-form="medial" 
d="M377 -252l78 101l110 -81l76 94l109 -77l-81 -101l-106 79l-75 -93zM506 -431l73 97l109 -80l-75 -94zM1131 1h-158q-135 0 -194 90q-17 26 -53 147l-304 -157q-155 -80 -330 -80h-122v149h118q175 0 278 47.5t300 139.5q-86 18 -207 72.5t-149 54.5q-59 0 -118 -80
l-91 48q100 186 197 186q67 0 201.5 -61t175.5 -75q138 -47 283 -47q30 0 60 2l-34 -140q-119 -1 -187 -33q19 -71 82 -97q43 -18 131 -18h121v-148z" />
    <glyph glyph-name="u062D" unicode="&#x62d;" horiz-adv-x="1153" arabic-form="isolated" 
d="M1242 -702q-219 -69 -413 -69q-277 0 -439 102q-196 123 -196 385q0 217 175 393q138 139 361 231q-242 71 -279 71q-66 0 -123 -95l-96 42q86 203 204 203q90 0 294.5 -60t283.5 -60t133 5l-38 -150q-164 -2 -291 -48q-202 -73 -331 -190q-164 -148 -164 -331
q0 -350 546 -350q184 0 334 47z" />
    <glyph glyph-name="uFEA2" unicode="&#x62d;" horiz-adv-x="1203" arabic-form="final" 
d="M1242 -702q-202 -69 -413 -69q-277 0 -439 102q-196 123 -196 385q0 217 180 397q144 144 357 226q-243 72 -280 72q-66 0 -123 -95l-96 42q86 203 204 203q85 0 289.5 -60t286 -60t135.5 5l-38 -150q-137 -2 -201 -27q11 -76 71 -101q44 -18 154 -18h102v-149h-141
q-108 0 -180 70.5t-81 179.5q-204 -69 -339 -189q-169 -150 -169 -335q0 -350 544 -350q202 0 334 47z" />
    <glyph glyph-name="uFEA3" unicode="&#x62d;" horiz-adv-x="954" arabic-form="initial" 
d="M954 419l-34 -143q-177 -1 -300 -73q-60 -37 -218 -131q-124 -71 -321 -71h-113v149h119q135 0 211 24.5t181 83.5t157 78q-57 14 -171 66.5t-155.5 52.5t-124.5 -83l-85 49q35 60 97.5 119t121.5 59t196 -64t166 -74q119 -42 250 -42h23z" />
    <glyph glyph-name="uFEA4" unicode="&#x62d;" horiz-adv-x="1100" arabic-form="medial" 
d="M1130 1h-159q-134 0 -193 90q-17 26 -53 147l-304 -157q-155 -80 -330 -80h-123v149h119q175 0 278 47.5t300 139.5q-86 18 -207 72.5t-149 54.5q-59 0 -118 -80l-91 48q99 186 197 186q66 0 200 -60.5t177 -75.5q136 -47 283 -47q30 0 60 2l-34 -140q-119 -1 -187 -33
q30 -115 213 -115h121v-148z" />
    <glyph glyph-name="u062E" unicode="&#x62e;" horiz-adv-x="1153" arabic-form="isolated" 
d="M724 882l-98 -128l-130 87l95 132zM1242 -702q-219 -69 -413 -69q-277 0 -439 102q-196 123 -196 385q0 217 175 393q138 139 361 231q-242 71 -279 71q-66 0 -123 -95l-96 42q86 203 204 203q90 0 294.5 -60t283.5 -60t133 5l-38 -150q-164 -2 -291 -48
q-202 -73 -331 -190q-164 -148 -164 -331q0 -350 546 -350q184 0 334 47z" />
    <glyph glyph-name="uFEA6" unicode="&#x62e;" horiz-adv-x="1204" arabic-form="final" 
d="M724 882l-98 -128l-130 87l95 132zM1242 -702q-202 -69 -413 -69q-277 0 -439 102q-196 123 -196 385q0 217 180 397q144 144 357 226q-243 72 -280 72q-66 0 -123 -95l-96 42q86 203 204 203q85 0 289.5 -60t286 -60t135.5 5l-38 -150q-137 -2 -201 -27q11 -76 71 -101
q44 -18 154 -18h102v-149h-141q-108 0 -180 70.5t-81 179.5q-204 -69 -339 -189q-169 -150 -169 -335q0 -350 544 -350q202 0 334 47z" />
    <glyph glyph-name="uFEA7" unicode="&#x62e;" horiz-adv-x="954" arabic-form="initial" 
d="M629 882l-98 -128l-130 87l96 132zM954 419l-34 -143q-177 -1 -300 -73q-60 -37 -218 -131q-124 -71 -321 -71h-113v149h119q135 0 211 24.5t181 83.5t157 78q-57 14 -171 66.5t-155.5 52.5t-124.5 -83l-85 49q35 60 97.5 119t121.5 59t196 -64t166 -74q119 -42 250 -42
h23z" />
    <glyph glyph-name="uFEA8" unicode="&#x62e;" horiz-adv-x="1100" arabic-form="medial" 
d="M629 882l-98 -128l-130 87l96 132zM1130 1h-159q-134 0 -193 90q-17 26 -53 147l-304 -157q-155 -80 -330 -80h-123v149h119q175 0 278 47.5t300 139.5q-86 18 -207 72.5t-149 54.5q-59 0 -118 -80l-91 48q99 186 197 186q66 0 200 -60.5t177 -75.5q136 -47 283 -47
q30 0 60 2l-34 -140q-119 -1 -187 -33q30 -115 213 -115h121v-148z" />
    <glyph glyph-name="u062F" unicode="&#x62f;" horiz-adv-x="844" arabic-form="isolated" 
d="M842 274q0 -183 -155 -246q-84 -34 -249 -34t-248 85l67 115q57 -44 173 -44t160 8q144 26 144 96q0 147 -290 334l61 150q120 -69 228.5 -197t108.5 -267z" />
    <glyph glyph-name="uFEAA" unicode="&#x62f;" horiz-adv-x="1060" arabic-form="final" 
d="M1091 1h-65q-75 0 -114 21q-63 34 -117 141q-49 -112 -142 -155q-73 -34 -228.5 -34t-231.5 74l69 126q63 -44 168 -44q313 0 313 139q0 22 -8 48l-123 396l95 106l130 -448q64 -221 189 -221h65v-149z" />
    <glyph glyph-name="u0630" unicode="&#x630;" horiz-adv-x="844" arabic-form="isolated" 
d="M521 1026l-98 -128l-130 87l96 131zM842 274q0 -183 -155 -246q-84 -34 -249 -34t-248 85l67 115q57 -44 173 -44t160 8q144 26 144 96q0 147 -290 334l61 150q120 -69 228.5 -197t108.5 -267z" />
    <glyph glyph-name="uFEAC" unicode="&#x630;" horiz-adv-x="1061" arabic-form="final" 
d="M718 1121l-97 -129l-131 88l96 131zM1091 1h-65q-75 0 -114 21q-63 34 -117 141q-49 -112 -142 -155q-73 -34 -228.5 -34t-231.5 74l69 126q63 -44 168 -44q313 0 313 139q0 22 -8 48l-123 396l95 106l130 -448q64 -221 189 -221h65v-149z" />
    <glyph glyph-name="u0631" unicode="&#x631;" horiz-adv-x="756" arabic-form="isolated" 
d="M648 514q106 -151 106 -319.5t-207 -354.5q-147 -132 -321 -214l-104 79q197 109 354.5 245.5t157.5 233t-91 225.5z" />
    <glyph glyph-name="uFEAE" unicode="&#x631;" horiz-adv-x="925" arabic-form="final" 
d="M956 1h-61q-76 0 -129 26q-23 -186 -231 -364q-140 -120 -320 -205l-94 78q201 116 362.5 252t161.5 232q0 72 -90 198l100 115q75 -106 90 -121q62 -62 148 -62h63v-149z" />
    <glyph glyph-name="u0632" unicode="&#x632;" horiz-adv-x="756" arabic-form="isolated" 
d="M642 799l-98 -128l-130 87l95 132zM648 514q106 -151 106 -319.5t-207 -354.5q-147 -132 -321 -214l-104 79q197 109 354.5 245.5t157.5 233t-91 225.5z" />
    <glyph glyph-name="uFEB0" unicode="&#x632;" horiz-adv-x="925" arabic-form="final" 
d="M660 644l-98 -128l-130 87l95 131zM956 1h-61q-76 0 -129 26q-23 -186 -231 -364q-140 -120 -320 -205l-94 78q201 116 362.5 252t161.5 232q0 72 -90 198l100 115q75 -106 90 -121q62 -62 148 -62h63v-149z" />
    <glyph glyph-name="u0698" unicode="&#x698;" horiz-adv-x="756" arabic-form="isolated" 
d="M712 781l-78 -100l-110 80l-76 -94l-109 78l81 100l106 -78l75 92zM583 960l-73 -97l-109 80l75 95zM648 514q106 -151 106 -319.5t-207 -354.5q-147 -132 -321 -214l-104 79q197 109 354.5 245.5t157.5 233t-91 225.5z" />
    <glyph glyph-name="uFB8B" unicode="&#x698;" horiz-adv-x="925" arabic-form="final" 
d="M750 601l-78 -101l-110 81l-76 -95l-109 78l81 101l106 -79l75 92zM621 779l-73 -96l-109 79l75 95zM956 1h-61q-76 0 -129 26q-23 -186 -231 -364q-140 -120 -320 -205l-94 78q201 116 362.5 252t161.5 232q0 72 -90 198l100 115q75 -106 90 -121q62 -62 148 -62h63
v-149z" />
    <glyph glyph-name="u0633" unicode="&#x633;" horiz-adv-x="1890" arabic-form="isolated" 
d="M1812 488q76 -93 76 -211t-56.5 -197t-175 -79t-174.5 102q-59 -102 -186 -102q-90 0 -139 50q2 -23 2 -46q0 -234 -146.5 -372.5t-363 -138.5t-336 116t-119.5 312q0 157 91 309l99 -37q-26 -41 -47.5 -116.5t-21.5 -124.5q0 -311 339 -311q158 0 275 83t117 235
t-96 304l117 100q51 -104 86 -145q58 -69 138.5 -69t111.5 38t31 125v24l97 35v-16q0 -206 144 -206q100 0 100 103q0 41 -59 126z" />
    <glyph glyph-name="uFEB2" unicode="&#x633;" horiz-adv-x="2075" arabic-form="final" 
d="M2106 1h-75q-123 0 -171 102q-73 -102 -199 -102t-179 102q-63 -102 -186 -102q-84 0 -139 50q2 -23 2 -46q0 -236 -146 -373.5t-363.5 -137.5t-336.5 115.5t-119 312.5q0 157 91 309l99 -37q-26 -41 -47.5 -116.5t-21.5 -124.5q0 -311 339 -311q158 0 275 83t117 235
t-96 304l117 100q51 -104 86 -145q58 -69 138.5 -69t111.5 38t31 125v24l97 35v-26q0 -196 129 -196q152 0 152 163v24l97 35v-26q0 -95 25 -138q33 -58 121 -58h51v-149z" />
    <glyph glyph-name="uFEB3" unicode="&#x633;" horiz-adv-x="1013" arabic-form="initial" 
d="M936 489q76 -92 76 -212t-59.5 -197.5t-164.5 -77.5q-138 0 -193 102q-74 -103 -205.5 -103t-168.5 104q-58 -104 -189 -104h-64v149h36q167 0 167 163v24l98 35v-26q0 -196 129 -196q149 0 149 164v24l98 35v-26q0 -196 149 -196q107 0 107 96q0 68 -61 133z" />
    <glyph glyph-name="uFEB4" unicode="&#x633;" horiz-adv-x="1211" arabic-form="medial" 
d="M1242 1h-63q-148 0 -193 102q-70 -102 -199 -102t-179 102q-75 -102 -207.5 -102t-179.5 102q-59 -102 -189 -102h-64v149h37q167 0 167 163v24l98 35v-26q0 -196 129 -196q88 0 124.5 37.5t36.5 125.5v24l97 35v-26q0 -196 130 -196q151 0 151 163v24l98 39v-30
q0 -97 24 -139q32 -57 122 -57h60v-149z" />
    <glyph glyph-name="u0634" unicode="&#x634;" horiz-adv-x="1896" arabic-form="isolated" 
d="M1678 796l-77 -101l-111 81l-75 -94l-110 77l81 101l106 -79l75 93zM1549 975l-72 -97l-110 80l75 94zM1812 488q76 -93 76 -211t-56.5 -197t-175 -79t-174.5 102q-59 -102 -186 -102q-90 0 -139 50q2 -23 2 -46q0 -234 -146.5 -372.5t-363 -138.5t-336 116t-119.5 312
q0 157 91 309l99 -37q-26 -41 -47.5 -116.5t-21.5 -124.5q0 -311 339 -311q158 0 275 83t117 235t-96 304l117 100q51 -104 86 -145q58 -69 138.5 -69t111.5 38t31 125v24l97 35v-16q0 -206 144 -206q100 0 100 103q0 41 -59 126z" />
    <glyph glyph-name="uFEB6" unicode="&#x634;" horiz-adv-x="2073" arabic-form="final" 
d="M1678 796l-77 -101l-111 81l-75 -94l-110 77l81 101l106 -79l75 93zM1549 975l-72 -97l-110 80l75 94zM2106 1h-75q-123 0 -171 102q-73 -102 -199 -102t-179 102q-63 -102 -186 -102q-84 0 -139 50q2 -23 2 -46q0 -236 -146 -373.5t-363.5 -137.5t-336.5 115.5
t-119 312.5q0 157 91 309l99 -37q-26 -41 -47.5 -116.5t-21.5 -124.5q0 -311 339 -311q158 0 275 83t117 235t-96 304l117 100q51 -104 86 -145q58 -69 138.5 -69t111.5 38t31 125v24l97 35v-26q0 -196 129 -196q152 0 152 163v24l97 35v-26q0 -95 25 -138q33 -58 121 -58
h51v-149z" />
    <glyph glyph-name="uFEB7" unicode="&#x634;" horiz-adv-x="1015" arabic-form="initial" 
d="M796 796l-78 -101l-110 81l-76 -94l-109 77l81 101l106 -79l75 93zM667 975l-73 -97l-109 80l75 94zM936 489q76 -92 76 -212t-59.5 -197.5t-164.5 -77.5q-138 0 -193 102q-74 -103 -205.5 -103t-168.5 104q-58 -104 -189 -104h-64v149h36q167 0 167 163v24l98 35v-26
q0 -196 129 -196q149 0 149 164v24l98 35v-26q0 -196 149 -196q107 0 107 96q0 68 -61 133z" />
    <glyph glyph-name="uFEB8" unicode="&#x634;" horiz-adv-x="1210" arabic-form="medial" 
d="M807 796l-78 -101l-110 81l-76 -94l-109 77l81 101l106 -79l74 93zM677 975l-72 -97l-109 80l74 94zM1242 1h-63q-148 0 -193 102q-70 -102 -199 -102t-179 102q-75 -102 -207.5 -102t-179.5 102q-59 -102 -189 -102h-64v149h37q167 0 167 163v24l98 35v-26
q0 -196 129 -196q88 0 124.5 37.5t36.5 125.5v24l97 35v-26q0 -196 130 -196q151 0 151 163v24l98 39v-30q0 -97 24 -139q32 -57 122 -57h60v-149z" />
    <glyph glyph-name="u0635" unicode="&#x635;" horiz-adv-x="2136" arabic-form="isolated" 
d="M1610 150q206 0 301 56t95 115.5t-46 88.5t-118 29t-187.5 -92t-203.5 -197h159zM2133 376q0 -197 -179 -296q-143 -79 -357 -79h-269q-95 0 -171 50q2 -23 2 -46q0 -234 -146.5 -372.5t-382.5 -138.5q-196 0 -316 116.5t-120 311.5q0 157 91 309l99 -37
q-26 -41 -47.5 -116.5t-21.5 -124.5q0 -311 339 -311q154 0 273 85t119 235t-96 302l117 100q64 -130 98 -172t95.5 -42t116.5 64q11 12 83 106q254 266 455 266q89 0 153.5 -60.5t64.5 -149.5z" />
    <glyph glyph-name="uFEBA" unicode="&#x635;" horiz-adv-x="2201" arabic-form="final" 
d="M1609 150q206 0 301 56t95 115.5t-45.5 88.5t-104.5 29q-150 0 -406 -289h160zM2233 1h-63q-138 0 -196 88q-145 -88 -378 -88h-270q-104 0 -169 50q2 -23 2 -46q0 -234 -146.5 -372.5t-363 -138.5t-336 116t-119.5 312q0 157 91 309l99 -37q-26 -41 -47.5 -116.5
t-21.5 -124.5q0 -311 339 -311q158 0 275 83t117 235t-96 304l117 100q61 -126 83 -155q45 -59 109 -59t98 43t104 127q237 266 453 266q89 0 153.5 -60.5t64.5 -163t-57 -179.5q31 -33 106 -33h52v-149z" />
    <glyph glyph-name="uFEBB" unicode="&#x635;" horiz-adv-x="1263" arabic-form="initial" 
d="M735 150q207 0 303 56t96 116t-46.5 88.5t-106.5 28.5q-138 0 -407 -289h161zM1261 376q0 -198 -179 -296q-144 -79 -359 -79h-270q-95 0 -151 17.5t-95 81.5q-65 -99 -174 -99h-65v149h45q146 0 146 154v39l113 40v-24q0 -209 121 -209q65 0 97 40l96 120q72 88 202 182
t235.5 94t171.5 -61t66 -149z" />
    <glyph glyph-name="uFEBC" unicode="&#x635;" horiz-adv-x="1331" arabic-form="medial" 
d="M735 150q207 0 303 56t96 116t-46.5 88.5t-106.5 28.5q-131 0 -407 -289h161zM1362 1h-63q-132 0 -195 88q-146 -88 -381 -88h-270q-95 0 -151 17.5t-95 81.5q-51 -99 -164 -99h-75v149h45q146 0 146 154v39l113 40v-24q0 -209 121 -209q62 0 93.5 39.5t98.5 120.5
q238 276 455 276q89 0 155 -61t66 -163t-56 -179q31 -33 106 -33h51v-149z" />
    <glyph glyph-name="u0636" unicode="&#x636;" horiz-adv-x="2136" arabic-form="isolated" 
d="M1823 889l-97 -129l-131 88l96 131zM1610 150q206 0 301 56t95 115.5t-46 88.5t-118 29t-187.5 -92t-203.5 -197h159zM2133 376q0 -197 -179 -296q-143 -79 -357 -79h-269q-95 0 -171 50q2 -23 2 -46q0 -234 -146.5 -372.5t-382.5 -138.5q-196 0 -316 116.5t-120 311.5
q0 157 91 309l99 -37q-26 -41 -47.5 -116.5t-21.5 -124.5q0 -311 339 -311q154 0 273 85t119 235t-96 302l117 100q64 -130 98 -172t95.5 -42t116.5 64q11 12 83 106q254 266 455 266q89 0 153.5 -60.5t64.5 -149.5z" />
    <glyph glyph-name="uFEBE" unicode="&#x636;" horiz-adv-x="2201" arabic-form="final" 
d="M1823 889l-97 -129l-131 88l96 131zM1609 150q206 0 301 56t95 115.5t-45.5 88.5t-104.5 29q-150 0 -406 -289h160zM2233 1h-63q-138 0 -196 88q-145 -88 -378 -88h-270q-104 0 -169 50q2 -23 2 -46q0 -234 -146.5 -372.5t-363 -138.5t-336 116t-119.5 312q0 157 91 309
l99 -37q-26 -41 -47.5 -116.5t-21.5 -124.5q0 -311 339 -311q158 0 275 83t117 235t-96 304l117 100q61 -126 83 -155q45 -59 109 -59t98 43t104 127q237 266 453 266q89 0 153.5 -60.5t64.5 -163t-57 -179.5q31 -33 106 -33h52v-149z" />
    <glyph glyph-name="uFEBF" unicode="&#x636;" horiz-adv-x="1263" arabic-form="initial" 
d="M931 931l-98 -129l-130 88l95 131zM735 150q207 0 303 56t96 116t-46.5 88.5t-106.5 28.5q-138 0 -407 -289h161zM1261 376q0 -198 -179 -296q-144 -79 -359 -79h-270q-95 0 -151 17.5t-95 81.5q-65 -99 -174 -99h-65v149h45q146 0 146 154v39l113 40v-24
q0 -209 121 -209q65 0 97 40l96 120q72 88 202 182t235.5 94t171.5 -61t66 -149z" />
    <glyph glyph-name="uFEC0" unicode="&#x636;" horiz-adv-x="1331" arabic-form="medial" 
d="M735 150q207 0 303 56t96 116t-46.5 88.5t-106.5 28.5q-131 0 -407 -289h161zM1362 1h-63q-132 0 -195 88q-146 -88 -381 -88h-270q-95 0 -151 17.5t-95 81.5q-51 -99 -164 -99h-75v149h45q146 0 146 154v39l113 40v-24q0 -209 121 -209q62 0 93.5 39.5t98.5 120.5
q238 276 455 276q89 0 155 -61t66 -163t-56 -179q31 -33 106 -33h51v-149zM931 931l-98 -129l-130 88l95 131z" />
    <glyph glyph-name="u0637" unicode="&#x637;" horiz-adv-x="1313" arabic-form="isolated" 
d="M783 150q207 0 305 56t98 116t-48.5 88.5t-114.5 28.5t-204 -103q-63 -47 -222 -186h186zM1311 376q0 -200 -179 -297q-144 -78 -361 -78h-270q-198 0 -307 89l42 115q98 -42 160 -42q109 0 185 127q2 6 2 212t-19 708l134 49v-888q70 78 181 145.5t203.5 67.5t160.5 -58
t68 -150z" />
    <glyph glyph-name="uFEC2" unicode="&#x637;" horiz-adv-x="1389" arabic-form="final" 
d="M783 150q207 0 305 56t98 116t-48.5 88.5t-114.5 28.5t-204 -103q-63 -47 -222 -186h186zM1241 176q29 -26 129 -26h51v-149h-63q-133 0 -201 91q-150 -91 -386 -91h-270q-198 0 -307 89l42 115q98 -42 160 -42q109 0 185 127q2 6 2 212t-19 708l134 49v-888
q70 78 181 145.5t203.5 67.5t163 -58.5t70.5 -149.5q0 -130 -75 -200z" />
    <glyph glyph-name="uFEC3" unicode="&#x637;" horiz-adv-x="944" arabic-form="initial" 
d="M416 150q207 0 304.5 56.5t97.5 116t-48 88t-114.5 28.5t-204.5 -103q-55 -41 -222 -186h187zM943 376q0 -200 -179 -297q-144 -78 -361 -78h-433v149h56q85 0 187 139q2 6 2 212.5t-19 708.5l135 49v-888q71 79 181 146t202.5 67t160.5 -58t68 -150z" />
    <glyph glyph-name="uFEC4" unicode="&#x637;" horiz-adv-x="1022" arabic-form="medial" 
d="M416 150q207 0 304.5 56.5t97.5 116t-48 88t-114.5 28.5t-204.5 -103q-55 -41 -222 -186h187zM1053 1h-63q-131 0 -200 91q-150 -91 -387 -91h-435v149h58q85 0 187 139q2 6 2 212.5t-19 708.5l135 49v-888q71 79 181 146t202.5 67t163 -58.5t70.5 -149.5
q0 -126 -70 -202q25 -24 124 -24h51v-149z" />
    <glyph glyph-name="u0638" unicode="&#x638;" horiz-adv-x="1313" arabic-form="isolated" 
d="M1130 931l-98 -129l-130 88l96 131zM783 150q207 0 305 56t98 116t-48.5 88.5t-114.5 28.5t-204 -103q-63 -47 -222 -186h186zM1311 376q0 -200 -179 -297q-144 -78 -361 -78h-270q-198 0 -307 89l42 115q98 -42 160 -42q109 0 185 127q2 6 2 212t-19 708l134 49v-888
q70 78 181 145.5t203.5 67.5t160.5 -58t68 -150z" />
    <glyph glyph-name="uFEC6" unicode="&#x638;" horiz-adv-x="1389" arabic-form="final" 
d="M1130 931l-98 -129l-130 88l96 131zM783 150q207 0 305 56t98 116t-48.5 88.5t-114.5 28.5t-204 -103q-63 -47 -222 -186h186zM1241 176q29 -26 129 -26h51v-149h-63q-133 0 -201 91q-150 -91 -386 -91h-270q-198 0 -307 89l42 115q98 -42 160 -42q109 0 185 127
q2 6 2 212t-19 708l134 49v-888q70 78 181 145.5t203.5 67.5t163 -58.5t70.5 -149.5q0 -130 -75 -200z" />
    <glyph glyph-name="uFEC7" unicode="&#x638;" horiz-adv-x="944" arabic-form="initial" 
d="M783 931l-97 -129l-130 88l95 131zM416 150q207 0 304.5 56.5t97.5 116t-48 88t-114.5 28.5t-204.5 -103q-55 -41 -222 -186h187zM943 376q0 -200 -179 -297q-144 -78 -361 -78h-433v149h56q85 0 187 139q2 6 2 212.5t-19 708.5l135 49v-888q71 79 181 146t202.5 67
t160.5 -58t68 -150z" />
    <glyph glyph-name="uFEC8" unicode="&#x638;" horiz-adv-x="1022" arabic-form="medial" 
d="M783 931l-97 -129l-130 88l95 131zM416 150q207 0 304.5 56.5t97.5 116t-48 88t-114.5 28.5t-204.5 -103q-55 -41 -222 -186h187zM1053 1h-63q-131 0 -200 91q-150 -91 -387 -91h-435v149h58q85 0 187 139q2 6 2 212.5t-19 708.5l135 49v-888q71 79 181 146t202.5 67
t163 -58.5t70.5 -149.5q0 -126 -70 -202q25 -24 124 -24h51v-149z" />
    <glyph glyph-name="u0639" unicode="&#x639;" horiz-adv-x="1077" arabic-form="isolated" 
d="M1242 -690q-219 -69 -413 -69q-264 0 -431 102q-204 124 -204 374q0 300 326 539q-156 78 -156 247q0 124 89 211.5t224.5 87.5t223.5 -83l-33 -101q-79 50 -173 50t-159 -40t-65 -117t74.5 -117.5t171.5 -40.5q27 0 142 29l191 48v-126q-724 -168 -724 -576
q0 -183 192 -272q144 -67 351 -67q113 0 324 47z" />
    <glyph glyph-name="uFECA" unicode="&#x639;" horiz-adv-x="1090" arabic-form="final" 
d="M1242 -702q-219 -69 -413 -69q-277 0 -439 102q-196 123 -196 385q0 320 429 560q-35 101 -170 105q6 107 102 163t190 56t157 -36.5t63 -112.5t-60 -133q-12 -11 -137 -97q61 -71 286 -71h68v-149h-139q-227 0 -303 160q-183 -103 -266 -199t-83 -234q0 -192 184 -282
q141 -69 354 -69q129 0 334 47z" />
    <glyph glyph-name="uFECB" unicode="&#x639;" horiz-adv-x="792" arabic-form="initial" 
d="M791 263l-15 -138q-380 -124 -742 -124h-66v149h234q-93 80 -93 227q0 103 87 193.5t226 90.5t250 -96l-48 -98q-91 53 -183.5 53t-156 -38t-63.5 -104q0 -90 95 -137q73 -36 166 -36t309 58z" />
    <glyph glyph-name="uFECC" unicode="&#x639;" horiz-adv-x="776" arabic-form="medial" 
d="M808 1h-105q-250 0 -321 157q-147 -157 -344 -157h-70v149h49q208 0 295 108q-35 108 -164 113q5 111 94.5 165t183.5 54t154 -34.5t60 -108t-38 -116t-137 -110.5q76 -71 278 -71h65v-149z" />
    <glyph glyph-name="u063A" unicode="&#x63a;" horiz-adv-x="1077" arabic-form="isolated" 
d="M710 1057l-98 -129l-130 88l96 131zM1242 -690q-219 -69 -413 -69q-264 0 -431 102q-204 124 -204 374q0 300 326 539q-156 78 -156 247q0 124 89 211.5t224.5 87.5t223.5 -83l-33 -101q-79 50 -173 50t-159 -40t-65 -117t74.5 -117.5t171.5 -40.5q27 0 142 29l191 48
v-126q-724 -168 -724 -576q0 -183 192 -272q144 -67 351 -67q113 0 324 47z" />
    <glyph glyph-name="uFECE" unicode="&#x63a;" horiz-adv-x="1090" arabic-form="final" 
d="M778 941l-97 -128l-131 87l96 131zM1242 -702q-219 -69 -413 -69q-275 0 -438 103q-197 124 -197 384q0 320 429 560q-35 101 -170 105q6 107 102 163t190 56t157 -36.5t63 -112.5t-60 -133q-12 -11 -137 -97q61 -71 286 -71h68v-149h-139q-227 0 -303 160
q-183 -103 -266 -199t-83 -234q0 -192 184 -282q141 -69 354 -69q129 0 334 47z" />
    <glyph glyph-name="uFECF" unicode="&#x63a;" horiz-adv-x="792" arabic-form="initial" 
d="M474 1004l-98 -128l-130 87l95 131zM791 263l-15 -138q-380 -124 -742 -124h-66v149h234q-93 80 -93 227q0 103 87 193.5t226 90.5t250 -96l-48 -98q-91 53 -183.5 53t-156 -38t-63.5 -104q0 -90 95 -137q73 -36 166 -36t309 58z" />
    <glyph glyph-name="uFED0" unicode="&#x63a;" horiz-adv-x="776" arabic-form="medial" 
d="M474 941l-98 -128l-130 87l95 131zM808 1h-105q-250 0 -321 157q-147 -157 -344 -157h-70v149h49q208 0 295 108q-35 108 -164 113q5 111 94.5 165t183.5 54t154 -34.5t60 -108t-38 -116t-137 -110.5q76 -71 278 -71h65v-149z" />
    <glyph glyph-name="u0641" unicode="&#x641;" horiz-adv-x="1614" arabic-form="isolated" 
d="M1429 1046l-97 -128l-131 87l96 131zM1470 471q-30 169 -97 169q-31 0 -58 -46.5t-27 -79.5q0 -78 79 -78q64 0 103 35zM1611 377q0 -159 -107 -248q-83 -69 -296 -119.5t-464.5 -50.5t-363.5 40q-186 66 -186 257q0 105 62 189l94 -29q-38 -69 -38 -130q0 -115 125 -154
q71 -22 220 -22h102q328 0 508.5 55t213.5 106q15 23 15 71q-66 -38 -143 -38t-120.5 42t-43.5 119t53 188q65 137 155 137q99 0 163 -165q51 -131 51 -248z" />
    <glyph glyph-name="uFED2" unicode="&#x641;" horiz-adv-x="1782" arabic-form="final" 
d="M1550 957l-97 -128l-131 87l96 131zM1514.5 292q39.5 42 39.5 80t-24 74.5t-62.5 36.5t-79.5 -37t-41 -73t30.5 -79.5t64 -43.5t73 42zM1814 1h-104q-186 0 -292 96q-127 -68 -320.5 -103t-399.5 -35t-318 40q-186 66 -186 257q0 105 62 189l94 -29q-38 -69 -38 -130
q0 -115 125 -154q71 -22 220 -22h102q390 0 545 77q-60 53 -60 161t86.5 196t162.5 88t123.5 -80t47.5 -150t-37.5 -138.5t-86.5 -93.5q41 -20 174 -20h100v-149z" />
    <glyph glyph-name="uFED3" unicode="&#x641;" horiz-adv-x="502" arabic-form="initial" 
d="M369 1025l-98 -128l-130 87l95 131zM359 443q-30 169 -97 169q-30 0 -58 -46.5t-28 -79.5q0 -77 80 -77q64 0 103 34zM500 350q0 -349 -359 -349h-173v149h156q59 0 159.5 28t100.5 72v65q-65 -39 -143 -39t-120.5 42t-42.5 120t52 187q65 137 156 137q99 0 163 -164
q51 -131 51 -248z" />
    <glyph glyph-name="uFED4" unicode="&#x641;" horiz-adv-x="574" arabic-form="medial" 
d="M421 931l-98 -129l-130 88l96 131zM366.5 289q43.5 41 43.5 74t-26 76.5t-62 43.5t-77.5 -38.5t-41.5 -73.5t29.5 -79t60 -44t74 41zM606 1h-51q-175 0 -284 90q-141 -90 -260 -90h-43v149h59q78 0 133 37q-61 62 -61 162t81.5 191.5t161.5 91.5t128.5 -76.5t48.5 -156.5
q0 -142 -120 -223q60 -26 160 -26h47v-149z" />
    <glyph glyph-name="u0642" unicode="&#x642;" horiz-adv-x="1204" arabic-form="isolated" 
d="M1113 1005l-87 -111l-113 84l-81 -100l-121 86l91 113l110 -82l78 96zM1049 376q-5 44 -38 106.5t-65.5 62.5t-60 -46.5t-27.5 -79.5q0 -78 80 -78q72 0 111 35zM1199 132q-16 -175 -160 -313.5t-366.5 -138.5t-350.5 106.5t-128 296.5t81 329l98 -37q-57 -123 -57 -225
q0 -322 343 -322q204 0 337 127q108 103 108 207q0 49 -12 95q-81 -48 -163.5 -48t-126 41.5t-43.5 119t53 188.5q65 137 158 137t162.5 -159.5t69.5 -327.5q0 -38 -3 -76z" />
    <glyph glyph-name="uFED6" unicode="&#x642;" horiz-adv-x="1242" arabic-form="final" 
d="M1096 779l-87 -111l-113 84l-81 -100l-121 86l92 113l109 -82l79 96zM1067 153q-4 55 -34.5 124t-70.5 69t-65 -35t-25 -70q0 -88 124 -88h71zM1275 1h-77q-25 -223 -170.5 -366.5t-381.5 -143.5t-358 151q-94 117 -94 280t83 291l99 -41q-60 -116 -60 -254t110.5 -208.5
t267.5 -70.5t264 103t128 271h-85q-232 0 -232 180q0 99 52 196.5t144 97.5t160 -125q54 -99 66 -212h84v-149z" />
    <glyph glyph-name="uFED7" unicode="&#x642;" horiz-adv-x="502" arabic-form="initial" 
d="M445 1031l-87 -111l-113 84l-81 -100l-121 86l91 113l110 -82l78 96zM359 443q-30 169 -97 169q-30 0 -58 -46.5t-28 -79.5q0 -77 80 -77q64 0 103 34zM500 350q0 -349 -359 -349h-173v149h156q59 0 159.5 28t100.5 72v65q-65 -39 -143 -39t-120.5 42t-42.5 120t52 187
q65 137 156 137q99 0 163 -164q51 -131 51 -248z" />
    <glyph glyph-name="uFED8" unicode="&#x642;" horiz-adv-x="574" arabic-form="medial" 
d="M482 932l-87 -112l-114 84l-80 -100l-121 87l91 112l109 -82l79 97zM366.5 289q43.5 41 43.5 74t-26 76.5t-62 43.5t-77.5 -38.5t-41.5 -73.5t29.5 -79t60 -44t74 41zM606 1h-51q-175 0 -284 90q-141 -90 -260 -90h-43v149h59q78 0 133 37q-61 62 -61 162t81.5 191.5
t161.5 91.5t128.5 -76.5t48.5 -156.5q0 -142 -120 -223q60 -26 160 -26h47v-149z" />
    <glyph glyph-name="u0643" unicode="&#x6a9;" horiz-adv-x="1853" arabic-form="isolated" 
d="M1873 1227l-20 -155q-422 -174 -646 -332q290 -235 290 -429q0 -100 -69 -169q-183 -183 -627 -183q-235 0 -347 40q-186 66 -186 257q0 105 62 189l93 -29q-38 -69 -38 -130q0 -114 126 -154q71 -22 220 -22h28q620 0 620 187q0 81 -92 179q-16 17 -209 193
q6 132 34 153q301 224 761 405z" />
    <glyph glyph-name="uFEDA" unicode="&#x6a9;" horiz-adv-x="1890" arabic-form="final" 
d="M1922 1h-63q-258 0 -463 341q4 -23 4 -45q0 -193 -278 -281q-180 -57 -405 -57t-337 40q-186 66 -186 257q0 105 62 189l94 -29q-38 -69 -38 -130q0 -176 345 -176h29q179 0 354 35q271 54 271 168q0 90 -75 162q-14 13 -198 179q3 144 20 156q130 91 389.5 229.5
t412.5 200.5l-20 -154q-160 -67 -389.5 -183.5t-299.5 -171.5l153 -127q67 -55 133 -133q274 -321 415 -321h70v-149z" />
    <glyph glyph-name="uFEDB" unicode="&#x6a9;" horiz-adv-x="756" arabic-form="initial" 
d="M774 1230l-20 -155q-415 -171 -646 -331q290 -236 290 -430q0 -92 -62 -177q-100 -136 -320 -136h-67v149h115q216 0 216 147q0 83 -91 181q-16 17 -210 194q7 135 35 154q297 206 760 404z" />
    <glyph glyph-name="uFEDC" unicode="&#x6a9;" horiz-adv-x="851" arabic-form="medial" 
d="M882 1h-62q-247 0 -455 335q5 -30 5 -58q0 -146 -100.5 -211.5t-253.5 -65.5h-69v149h60q274 0 274 163q0 81 -64 142.5t-206 195.5q3 145 19 156q128 90 389.5 229t413.5 201l-20 -154q-158 -66 -389.5 -183.5t-299.5 -171.5q63 -52 143 -119.5t177 -180.5t166 -174
q118 -104 208 -104h64v-149z" />
    <glyph glyph-name="u06AF" unicode="&#x6af;" horiz-adv-x="1764" arabic-form="isolated" 
d="M1778 1179l-20 -157q-174 -67 -358.5 -157t-250.5 -137q117 -96 165 -153q109 -130 109 -250.5t-68 -182.5q-202 -183 -627 -183q-236 0 -348 40q-186 66 -186 257q0 105 62 189l94 -29q-38 -69 -38 -130q0 -115 125 -154q71 -22 220 -22h29q625 0 625 186q0 80 -111 196
q-50 53 -177 159q6 123 35 143q309 218 720 385zM1771 1387l-9 -103q-140 -58 -350 -170l-356 -190l10 88q424 240 705 375z" />
    <glyph glyph-name="uFB93" unicode="&#x6af;" horiz-adv-x="1890" arabic-form="final" 
d="M1922 1h-63q-258 0 -463 341q4 -23 4 -45q0 -193 -278 -281q-180 -57 -405 -57t-337 40q-186 66 -186 257q0 105 62 189l94 -29q-38 -69 -38 -130q0 -176 345 -176h29q179 0 354 35q271 54 271 168q0 92 -85 161q-52 42 -189 150q3 150 24 165q122 87 374.5 213.5
t406.5 185.5l-20 -155q-140 -45 -358 -147.5t-310 -175.5l148 -112q81 -63 135 -127q269 -321 415 -321h70v-149zM1846 1387l-20 -106q-129 -50 -370 -172l-387 -195l11 85q535 290 766 388z" />
    <glyph glyph-name="uFB94" unicode="&#x6af;" horiz-adv-x="731" arabic-form="initial" 
d="M749 1176l-20 -157q-174 -66 -359 -156.5t-250 -137.5q113 -92 164 -153q110 -131 110 -261q0 -310 -378 -310h-67v149h115q217 0 217 139q0 118 -287 359q6 123 34 143q305 216 721 385zM741 1384l-8 -103q-133 -53 -351 -170l-356 -190l11 88q423 240 704 375z" />
    <glyph glyph-name="uFB95" unicode="&#x6af;" horiz-adv-x="851" arabic-form="medial" 
d="M882 1h-62q-247 0 -455 335q5 -30 5 -58q0 -146 -100.5 -211.5t-253.5 -65.5h-69v149h60q274 0 274 163q0 58 -85 142q-5 5 -190 166q4 151 24 165q125 88 373.5 212.5t408.5 186.5l-20 -155q-140 -45 -358 -147.5t-310 -175.5q13 -11 124 -95.5t159 -140.5
q137 -159 203 -217q118 -104 208 -104h64v-149zM816 1384l-20 -106q-110 -42 -370 -173l-387 -194l10 85q536 290 767 388z" />
    <glyph glyph-name="u0644" unicode="&#x644;" horiz-adv-x="1052" arabic-form="isolated" 
d="M1051 383q0 -275 -84 -413q-107 -176 -364 -176q-196 0 -302.5 109t-106.5 305q0 64 24 154.5t56 143.5l98 -34q-59 -120 -59 -221q0 -309 309.5 -309t309.5 398q0 85 -24 871l143 59v-887z" />
    <glyph glyph-name="uFEDE" unicode="&#x644;" horiz-adv-x="1294" arabic-form="final" 
d="M1324 1h-63q-103 0 -159 88q0 -575 -507 -575q-192 0 -296.5 113t-104.5 300t87 325l100 -37q-66 -123 -66 -252q0 -301 315 -301q366 0 366 396v28l-34 1110l143 73v-850q0 -269 184 -269h35v-149z" />
    <glyph glyph-name="uFEDF" unicode="&#x644;" horiz-adv-x="293" arabic-form="initial" 
d="M292 434q0 -203 -39 -295q-59 -138 -221 -138h-64v149h66q99 0 131 77q19 46 19 125t-1 111l-23 738l132 68v-835z" />
    <glyph glyph-name="uFEE0" unicode="&#x644;" horiz-adv-x="465" arabic-form="medial" 
d="M497 1h-63q-132 0 -188 134q-80 -134 -214 -134h-64v149h34q120 0 160 74q26 49 26 157v30l-23 790l132 68v-809q0 -310 159 -310h41v-149z" />
    <glyph glyph-name="u0645" unicode="&#x645;" horiz-adv-x="887" arabic-form="isolated" 
d="M679 274q67 0 67 29.5t-62 86t-105.5 56.5t-63.5 -40t-20 -69.5t4 -49.5q27 -1 88 -7t92 -6zM751 116l-283 14q-98 0 -130 -63q-22 -44 -22 -165v-711h-112l-10 709v16q0 305 189 358q0 106 34 197q46 123 135 123t212 -93t123 -178q0 -48 -46 -127.5t-90 -79.5z" />
    <glyph glyph-name="uFEE2" unicode="&#x645;" horiz-adv-x="1048" arabic-form="final" 
d="M688 -110q60 0 60 70t-65 130q-24 22 -97 62v-31q32 -188 102 -231zM1080 1h-64q-114 0 -186 43q19 -41 19 -107.5t-33 -134.5t-99 -68q-226 0 -226 321q0 36 4 66q-112 0 -151 -73q-28 -52 -28 -175v-736h-108l-13 823v7q0 120 77 216t226 96l12 92l253 -147
q127 -74 266 -74h51v-149z" />
    <glyph glyph-name="uFEE3" unicode="&#x645;" horiz-adv-x="687" arabic-form="initial" 
d="M538 192q25 0 25 50t-29 118.5t-61 68.5q-43 0 -115 -155q63 -49 115.5 -65.5t64.5 -16.5zM685 216q0 -35 -42 -106.5t-76 -71.5q-63 0 -144 37.5t-131 84.5q-73 -83 -128.5 -121t-131.5 -38h-64v149h34q156 0 240 142q27 48 100 169t152 121q90 0 147 -146
q44 -113 44 -220z" />
    <glyph glyph-name="uFEE4" unicode="&#x645;" horiz-adv-x="836" arabic-form="medial" 
d="M494 77q32 0 32 46t-45 124t-70 78q-49 0 -106 -146q49 -48 108 -75t81 -27zM868 1h-64q-93 0 -184 89q-28 -166 -88 -166h-6q-161 20 -312 148q-79 -71 -166 -71h-80v149h57q143 0 195 85q78 128 85 138q66 93 113.5 93t110.5 -83q96 -127 123 -152q86 -81 179 -81h37
v-149z" />
    <glyph glyph-name="u0646" unicode="&#x646;" horiz-adv-x="1134" arabic-form="isolated" 
d="M773 789l-98 -128l-130 87l96 131zM1132 301q0 -231 -139 -369t-355 -138t-329 128.5t-113 285.5t88 288l97 -35q-59 -119 -59 -210q0 -309 320 -309q162 0 262 87.5t100 239.5t-99 280l106 90q121 -157 121 -338z" />
    <glyph glyph-name="uFEE6" unicode="&#x646;" horiz-adv-x="1249" arabic-form="final" 
d="M741 476l-93 -122l-124 83l91 125zM1279 1h-59q-71 0 -118 48q1 -22 1 -44q0 -222 -139.5 -354.5t-345 -132.5t-319.5 110.5t-114 297.5q0 149 86 294l94 -35q-65 -107 -65 -230q0 -296 323 -296q148 0 260.5 80t112.5 223.5t-91 288.5l111 96q51 -104 80 -139
q54 -65 130 -65h53v-142z" />
    <glyph glyph-name="uFEE7" unicode="&#x646;" horiz-adv-x="355" arabic-form="initial" 
d="M290 826l-98 -129l-130 88l96 131zM352 258q0 -257 -299 -257h-85v149h93q173 0 173 93q0 50 -51 116l-34 44l103 113q100 -112 100 -258z" />
    <glyph glyph-name="uFEE8" unicode="&#x646;" horiz-adv-x="548" arabic-form="medial" 
d="M579 1h-85q-175 0 -230 122q-27 -56 -86.5 -89t-123.5 -33h-86v149h77q75 0 129 36.5t54 107.5v63l102 27q1 -145 46 -189.5t142 -44.5h61v-149zM353 710l-98 -128l-130 87l96 131z" />
    <glyph glyph-name="u0648" unicode="&#x648;" horiz-adv-x="705" arabic-form="isolated" 
d="M559 287q-8 156 -111 156q-36 0 -61.5 -36.5t-25.5 -74.5q0 -78 98 -78q52 0 100 33zM702 223q0 -213 -135 -379.5t-344 -256.5l-94 105q203 110 292 188q138 121 163 272q-60 -39 -144.5 -39t-137 43t-52.5 138t61 199.5t149 104.5q119 0 187 -134q55 -108 55 -241z" />
    <glyph glyph-name="uFEEE" unicode="&#x648;" horiz-adv-x="823" arabic-form="final" 
d="M361 204q0 -65 124 -65q50 0 77 13q-4 58 -32 113t-72 55t-70.5 -39t-26.5 -77zM856 1h-162q-65 -364 -471 -538l-94 105q200 110 288 183q135 113 159 245q-50 -9 -103 -9q-224 0 -224 160q0 97 61 212t150 115q113 0 177 -111q49 -84 62 -213h157v-149z" />
    <glyph glyph-name="u0647" unicode="&#x647;" horiz-adv-x="587" arabic-form="isolated" 
d="M445 155.5q34 29.5 34 78t-47.5 105t-95.5 88.5q-76 -144 -76 -185q0 -116 105 -116q46 0 80 29.5zM586 231q0 -108 -62.5 -180t-158.5 -72t-148 57.5t-52 139.5t19 129t86 166l-23 19l71 135q268 -210 268 -394z" />
    <glyph glyph-name="uFEEA" unicode="&#x647;" horiz-adv-x="941" arabic-form="final" 
d="M568 378l-33 172q-70 -29 -142.5 -82.5t-72.5 -106.5q0 -37 76 -37q120 0 172 54zM973 1h-92q-123 0 -187 57t-93 180q-100 -75 -260 -75q-62 0 -104.5 40t-42.5 102q0 213 321 375l-20 110l105 84l94 -495q26 -135 58 -174q45 -55 167 -55h54v-149z" />
    <glyph glyph-name="uFEEB" unicode="&#x647;" horiz-adv-x="764" arabic-form="initial" 
d="M241 430q-44 -44 -44 -86t51 -79.5t86 -37.5t57.5 40.5t22.5 81.5t-23 83t-64.5 42t-85.5 -44zM608 98q44 0 44 64.5t-141 219.5q3 -21 3 -41q0 -100 -74 -168q23 -15 88.5 -45t79.5 -30zM761 162q0 -219 -135 -219q-34 0 -269 113q-100 -55 -247 -55h-140v149h227
q-118 50 -118 162q0 148 211 268l-53 38l60 141q464 -340 464 -597z" />
    <glyph glyph-name="uFEEC" unicode="&#x647;" horiz-adv-x="792" arabic-form="medial" 
d="M367 186q55 35 55 105.5t-30 118t-51 47.5t-59 -89t-38 -207q13 -1 48.5 -1t74.5 26zM823 1h-67q-93 0 -163 -35q-89 -44 -89 -128.5t95 -133.5l-44 -136q-328 103 -410 433h-175v149h159q0 177 82 333.5t139 156.5q46 0 111.5 -102.5t65.5 -216t-69.5 -216
t-184.5 -102.5q30 -115 143 -195q-6 23 -6 48q0 121 93.5 207.5t215.5 86.5h104v-149z" />
    <glyph glyph-name="u0629" unicode="&#x6c0;" horiz-adv-x="613" arabic-form="isolated" 
d="M585 854l-384 -98v67l99 41q-50 49 -50 102t45.5 98.5t108 45.5t111.5 -38l-23 -56q-45 14 -83 14t-67.5 -15t-29.5 -38q0 -70 119 -70q16 0 154 42v-95zM472.5 155.5q33.5 29.5 33.5 78t-47 105t-96 88.5q-75 -144 -75 -185q0 -116 105 -116q46 0 79.5 29.5zM613 231
q0 -108 -62.5 -180t-158 -72t-148 58t-52.5 140t19.5 127.5t85.5 166.5l-23 19l72 135q267 -210 267 -394z" />
    <glyph glyph-name="uFE94" unicode="&#x6c0;" horiz-adv-x="941" arabic-form="final" 
d="M690 1020l-384 -98v67l99 41q-50 49 -50 102t45.5 98.5t108 45.5t111.5 -38l-23 -56q-45 14 -83 14t-67.5 -15t-29.5 -38q0 -70 119 -70q16 0 154 42v-95zM568 378l-33 172q-70 -29 -142.5 -82.5t-72.5 -106.5q0 -37 76 -37q120 0 172 54zM973 1h-92q-123 0 -187 57
t-93 180q-100 -75 -260 -75q-62 0 -104.5 40t-42.5 102q0 213 321 375l-20 110l105 84l94 -495q26 -135 58 -174q45 -55 167 -55h54v-149z" />
    <glyph glyph-name="u064A" unicode="&#x6cc;" horiz-adv-x="1349" arabic-form="isolated" 
d="M1349 660l-49 -132q-48 21 -129 21t-186.5 -67.5t-127.5 -156.5q-2 -8 -2 -19q0 -47 117 -63q77 -5 154 -11q181 -20 181 -170t-219 -279t-430 -129t-337.5 98t-126.5 286.5t91 333.5l98 -43q-69 -122 -69 -233q0 -292 363 -292q123 0 260.5 46.5t228.5 122.5
q44 37 44 65q0 37 -65 45q-272 32 -309 46q-84 31 -84 145q0 159 150.5 293t311.5 134q78 0 135 -41z" />
    <glyph glyph-name="uFEF2" unicode="&#x6cc;" horiz-adv-x="1206" arabic-form="final" 
d="M1237 1h-230q-148 0 -148 -33q0 -21 126.5 -47.5t140.5 -33.5q73 -37 73 -124q0 -136 -218 -232q-180 -79 -335 -79q-210 0 -331 102t-121 308q0 149 86 312l109 -37q-64 -132 -64 -242q0 -292 337 -292q261 0 418 119q15 11 15 24t-22 16q-198 30 -266 61q-23 11 -39 44
t-16 61q0 222 390 222h95v-149z" />
    <glyph glyph-name="uFEF3" unicode="&#x6cc;" horiz-adv-x="433" arabic-form="initial" 
d="M454 -271l-87 -111l-114 84l-81 -100l-121 86l92 112l109 -81l79 96zM352 258q0 -257 -299 -257h-85v149h93q173 0 173 93q0 50 -51 116l-34 44l103 113q100 -112 100 -258z" />
    <glyph glyph-name="uFEF4" unicode="&#x6cc;" horiz-adv-x="548" arabic-form="medial" 
d="M579 1h-85q-175 0 -230 122q-27 -56 -86.5 -89t-123.5 -33h-86v149h77q75 0 129 36.5t54 107.5v63l102 27q1 -145 46 -189.5t142 -44.5h61v-149zM475 -271l-87 -111l-114 84l-81 -100l-121 86l92 112l109 -81l79 96z" />
    <glyph glyph-name="u0649" unicode="&#x649;" horiz-adv-x="1349" arabic-form="isolated" 
d="M1349 660l-49 -132q-48 21 -129 21t-186.5 -67.5t-127.5 -156.5q-2 -8 -2 -19q0 -47 117 -63q77 -5 154 -11q181 -20 181 -170t-219 -279t-430 -129t-337.5 98t-126.5 286.5t91 333.5l98 -43q-69 -122 -69 -233q0 -292 363 -292q123 0 260.5 46.5t228.5 122.5
q44 37 44 65q0 37 -65 45q-272 32 -309 46q-84 31 -84 145q0 159 150.5 293t311.5 134q78 0 135 -41z" />
    <glyph glyph-name="uFEF0" unicode="&#x649;" horiz-adv-x="1206" arabic-form="final" 
d="M1237 1h-230q-148 0 -148 -33q0 -21 126.5 -47.5t140.5 -33.5q73 -37 73 -124q0 -136 -218 -232q-180 -79 -335 -79q-210 0 -331 102t-121 308q0 149 86 312l109 -37q-64 -132 -64 -242q0 -292 337 -292q261 0 418 119q15 11 15 24t-22 16q-198 30 -266 61q-23 11 -39 44
t-16 61q0 222 390 222h95v-149z" />
    <glyph glyph-name=".notdef" horiz-adv-x="1024" 
d="M256 128h512v1048h-512v-1048zM128 0v1304h768v-1304h-768z" />
    <glyph glyph-name=".null" 
 />
    <glyph glyph-name="nonmarkingreturn" horiz-adv-x="525" 
 />
    <glyph glyph-name="space" unicode=" " horiz-adv-x="525" 
 />
    <glyph glyph-name="exclam" unicode="!" horiz-adv-x="362" 
d="M357 -29h-159v158h159v-158zM361 949l-51 -676h-62l-54 674v269h167v-267z" />
    <glyph glyph-name="percent" unicode="%" horiz-adv-x="939" 
d="M840 85l-113 -117l-117 117l117 113zM696 1157l-457 -1259l-63 22l449 1259zM317 1036l-113 -115l-117 116l117 113z" />
    <glyph glyph-name="parenleft" unicode="(" horiz-adv-x="557" 
d="M556 -124l-37 -45q-162 152 -243.5 352t-81.5 360t68 337q88 229 257 386l37 -46q-234 -365 -234 -671t234 -673z" />
    <glyph glyph-name="parenright" unicode=")" horiz-adv-x="557" 
d="M194 1220l37 46q162 -153 243.5 -352t81.5 -358.5t-69 -339.5q-88 -230 -256 -385l-37 45q233 366 233 671.5t-233 672.5z" />
    <glyph glyph-name="asterisk" unicode="*" horiz-adv-x="1209" 
d="M611 316l-207 -272l-107 111l268 205zM778 -48h-154l49 341h56zM535 432l-341 -56v160l341 -50v-54zM1123 165l-121 -121l-202 277l45 46zM611 604l-49 -45l-273 201l115 118zM778 968l-49 -340h-56l-49 340h154zM1208 388l-337 49v61l337 49v-159zM1114 769l-274 -207
l-40 43l200 276z" />
    <glyph glyph-name="plus" unicode="+" horiz-adv-x="876" 
d="M778 311h-299v-299h-79v299h-299v80h299v299h79v-299h299v-80z" />
    <glyph glyph-name="comma" unicode="," horiz-adv-x="356" 
d="M180 172h161v-128q0 -196 -137 -265l-18 40q94 52 94 185h-100v168z" />
    <glyph glyph-name="hyphen" unicode="-" horiz-adv-x="876" 
d="M778 311h-677v80h677v-80z" />
    <glyph glyph-name="period" unicode="." horiz-adv-x="361" 
d="M360 1h-165v163h165v-163z" />
    <glyph glyph-name="slash" unicode="/" horiz-adv-x="670" 
d="M581 1140l-459 -1263l-57 25l451 1264z" />
    <glyph glyph-name="zero" unicode="0" horiz-adv-x="1002" 
d="M630 424l-148 -148l-150 148l150 149z" />
    <glyph glyph-name="zero" unicode="&#x660;" horiz-adv-x="1002" 
d="M630 424l-148 -148l-150 148l150 149z" />
    <glyph glyph-name="zero" unicode="&#x6f0;" horiz-adv-x="1002" 
d="M630 424l-148 -148l-150 148l150 149z" />
    <glyph glyph-name="one" unicode="1" horiz-adv-x="1002" 
d="M640 -42h-91q-11 679 -241 1007l81 179q141 -200 194 -486.5t57 -699.5z" />
    <glyph glyph-name="one" unicode="&#x661;" horiz-adv-x="1002" 
d="M640 -42h-91q-11 679 -241 1007l81 179q141 -200 194 -486.5t57 -699.5z" />
    <glyph glyph-name="one" unicode="&#x6f1;" horiz-adv-x="1002" 
d="M640 -42h-91q-11 679 -241 1007l81 179q141 -200 194 -486.5t57 -699.5z" />
    <glyph glyph-name="two" unicode="2" horiz-adv-x="1002" 
d="M808 1155q-3 -233 -67 -327q-79 -115 -296 -115q64 -289 68 -755h-91q-12 678 -241 1008l72 164q74 -118 116 -157q72 -68 178 -68t143 54t37 168z" />
    <glyph glyph-name="two" unicode="&#x662;" horiz-adv-x="1002" 
d="M808 1155q-3 -233 -67 -327q-79 -115 -296 -115q64 -289 68 -755h-91q-12 678 -241 1008l72 164q74 -118 116 -157q72 -68 178 -68t143 54t37 168z" />
    <glyph glyph-name="two" unicode="&#x6f2;" horiz-adv-x="1002" 
d="M808 1155q-3 -233 -67 -327q-79 -115 -296 -115q64 -289 68 -755h-91q-12 678 -241 1008l72 164q74 -118 116 -157q72 -68 178 -68t143 54t37 168z" />
    <glyph glyph-name="three" unicode="3" horiz-adv-x="1002" 
d="M913 1155q4 -41 4 -80q0 -116 -43 -202q-55 -110 -160 -110q-76 0 -136 64q-55 -68 -99.5 -91t-128.5 -23q63 -294 67 -755h-91q-13 681 -242 1007l74 163q63 -105 96 -142q71 -81 141 -81t104 74q25 55 26 133l58 25q29 -227 156 -227q96 0 96 178q0 15 -1 32z" />
    <glyph glyph-name="three" unicode="&#x663;" horiz-adv-x="1002" 
d="M913 1155q4 -41 4 -80q0 -116 -43 -202q-55 -110 -160 -110q-76 0 -136 64q-55 -68 -99.5 -91t-128.5 -23q63 -294 67 -755h-91q-13 681 -242 1007l74 163q63 -105 96 -142q71 -81 141 -81t104 74q25 55 26 133l58 25q29 -227 156 -227q96 0 96 178q0 15 -1 32z" />
    <glyph glyph-name="three" unicode="&#x6f3;" horiz-adv-x="1002" 
d="M913 1155q4 -41 4 -80q0 -116 -43 -202q-55 -110 -160 -110q-76 0 -136 64q-55 -68 -99.5 -91t-128.5 -23q63 -294 67 -755h-91q-13 681 -242 1007l74 163q63 -105 96 -142q71 -81 141 -81t104 74q25 55 26 133l58 25q29 -227 156 -227q96 0 96 178q0 15 -1 32z" />
    <glyph glyph-name="four" unicode="4" horiz-adv-x="1002" 
d="M802 838q-47 -80 -130 -128t-165.5 -48t-152.5 32q62 -302 66 -736h-90q-12 656 -242 987l78 179q30 -34 126 -181q60 240 229 240q114 0 185 -90l-38 -67q-70 45 -127.5 45t-100.5 -38.5t-43 -100.5t48.5 -94.5t114.5 -32.5q127 0 209 90z" />
    <glyph glyph-name="four" unicode="&#x664;" horiz-adv-x="1002" 
d="M802 838q-47 -80 -130 -128t-165.5 -48t-152.5 32q62 -302 66 -736h-90q-12 656 -242 987l78 179q30 -34 126 -181q60 240 229 240q114 0 185 -90l-38 -67q-70 45 -127.5 45t-100.5 -38.5t-43 -100.5t48.5 -94.5t114.5 -32.5q127 0 209 90z" />
    <glyph glyph-name="four" unicode="&#x6f4;" horiz-adv-x="1002" 
d="M802 838q-47 -80 -130 -128t-165.5 -48t-152.5 32q62 -302 66 -736h-90q-12 656 -242 987l78 179q30 -34 126 -181q60 240 229 240q114 0 185 -90l-38 -67q-70 45 -127.5 45t-100.5 -38.5t-43 -100.5t48.5 -94.5t114.5 -32.5q127 0 209 90z" />
    <glyph glyph-name="five" unicode="5" horiz-adv-x="1002" 
d="M778 318q0 239 -291 524q-252 -306 -252 -545q0 -169 114 -169q91 0 152 98q38 -83 134 -83q143 0 143 175zM889 304q0 -148 -67 -238.5t-147 -90.5q-120 0 -179 92q-57 -107 -164.5 -107t-158.5 77.5t-51 192.5q0 196 116 417q86 164 179 256l-52 46l78 157
q194 -152 320 -364.5t126 -437.5z" />
    <glyph glyph-name="five" unicode="&#x665;" horiz-adv-x="1002" 
d="M778 318q0 239 -291 524q-252 -306 -252 -545q0 -169 114 -169q91 0 152 98q38 -83 134 -83q143 0 143 175zM889 304q0 -148 -67 -238.5t-147 -90.5q-120 0 -179 92q-57 -107 -164.5 -107t-158.5 77.5t-51 192.5q0 196 116 417q86 164 179 256l-52 46l78 157
q194 -152 320 -364.5t126 -437.5z" />
    <glyph glyph-name="five" unicode="&#x6f5;" horiz-adv-x="1002" 
d="M778 318q0 239 -291 524q-252 -306 -252 -545q0 -169 114 -169q91 0 152 98q38 -83 134 -83q143 0 143 175zM889 304q0 -148 -67 -238.5t-147 -90.5q-120 0 -179 92q-57 -107 -164.5 -107t-158.5 77.5t-51 192.5q0 196 116 417q86 164 179 256l-52 46l78 157
q194 -152 320 -364.5t126 -437.5z" />
    <glyph glyph-name="six" unicode="6" horiz-adv-x="1002" 
d="M880 744l-39 -174q-239 -119 -398 -288q-110 -117 -241 -333l-75 33q85 177 105 212q94 160 246 310q-301 17 -301 219q0 100 119.5 238.5t242 138.5t202.5 -81l-49 -88q-82 40 -146 40t-147.5 -64t-83.5 -129q0 -73 108 -101q61 -16 105 -16t60 1q112 5 292 82z" />
    <glyph glyph-name="six" unicode="&#x666;" horiz-adv-x="1002" 
d="M880 744l-39 -174q-239 -119 -398 -288q-110 -117 -241 -333l-75 33q85 177 105 212q94 160 246 310q-301 17 -301 219q0 100 119.5 238.5t242 138.5t202.5 -81l-49 -88q-82 40 -146 40t-147.5 -64t-83.5 -129q0 -73 108 -101q61 -16 105 -16t60 1q112 5 292 82z" />
    <glyph glyph-name="six" unicode="&#x6f6;" horiz-adv-x="1002" 
d="M880 744l-39 -174q-239 -119 -398 -288q-110 -117 -241 -333l-75 33q85 177 105 212q94 160 246 310q-301 17 -301 219q0 100 119.5 238.5t242 138.5t202.5 -81l-49 -88q-82 40 -146 40t-147.5 -64t-83.5 -129q0 -73 108 -101q61 -16 105 -16t60 1q112 5 292 82z" />
    <glyph glyph-name="seven" unicode="7" horiz-adv-x="1002" 
d="M943 954q-124 -136 -248.5 -420t-139.5 -581h-97q-15 297 -139.5 581t-249.5 420q22 73 55 171q317 -416 382 -783q53 347 381 781q22 -64 56 -169z" />
    <glyph glyph-name="seven" unicode="&#x667;" horiz-adv-x="1002" 
d="M943 954q-124 -136 -248.5 -420t-139.5 -581h-97q-15 297 -139.5 581t-249.5 420q22 73 55 171q317 -416 382 -783q53 347 381 781q22 -64 56 -169z" />
    <glyph glyph-name="seven" unicode="&#x6f7;" horiz-adv-x="1002" 
d="M943 954q-124 -136 -248.5 -420t-139.5 -581h-97q-15 297 -139.5 581t-249.5 420q22 73 55 171q317 -416 382 -783q53 347 381 781q22 -64 56 -169z" />
    <glyph glyph-name="eight" unicode="8" horiz-adv-x="1002" 
d="M69 124q127 138 250 419.5t139 581.5h97q14 -299 138 -581t250 -420q-22 -74 -54 -171q-318 416 -383 782q-52 -346 -381 -780q-22 64 -56 169z" />
    <glyph glyph-name="eight" unicode="&#x668;" horiz-adv-x="1002" 
d="M69 124q127 138 250 419.5t139 581.5h97q14 -299 138 -581t250 -420q-22 -74 -54 -171q-318 416 -383 782q-52 -346 -381 -780q-22 64 -56 169z" />
    <glyph glyph-name="eight" unicode="&#x6f8;" horiz-adv-x="1002" 
d="M69 124q127 138 250 419.5t139 581.5h97q14 -299 138 -581t250 -420q-22 -74 -54 -171q-318 416 -383 782q-52 -346 -381 -780q-22 64 -56 169z" />
    <glyph glyph-name="nine" unicode="9" horiz-adv-x="1002" 
d="M548 688q0 168 -14 214q-21 69 -98 69q-44 0 -87.5 -75t-43.5 -123q0 -90 172 -90q35 0 71 5zM808 106l-91 -157q-156 212 -156 567q-247 0 -327 70q-50 44 -50 150t89 254t192 148q190 0 190 -419q0 -273 39.5 -397.5t113.5 -215.5z" />
    <glyph glyph-name="nine" unicode="&#x669;" horiz-adv-x="1002" 
d="M548 688q0 168 -14 214q-21 69 -98 69q-44 0 -87.5 -75t-43.5 -123q0 -90 172 -90q35 0 71 5zM808 106l-91 -157q-156 212 -156 567q-247 0 -327 70q-50 44 -50 150t89 254t192 148q190 0 190 -419q0 -273 39.5 -397.5t113.5 -215.5z" />
    <glyph glyph-name="nine" unicode="&#x6f9;" horiz-adv-x="1002" 
d="M548 688q0 168 -14 214q-21 69 -98 69q-44 0 -87.5 -75t-43.5 -123q0 -90 172 -90q35 0 71 5zM808 106l-91 -157q-156 212 -156 567q-247 0 -327 70q-50 44 -50 150t89 254t192 148q190 0 190 -419q0 -273 39.5 -397.5t113.5 -215.5z" />
    <glyph glyph-name="colon" unicode=":" horiz-adv-x="364" 
d="M361 1h-165v163h165v-163zM361 358h-165v163h165v-163z" />
    <glyph glyph-name="equal" unicode="=" horiz-adv-x="876" 
d="M778 216h-677v80h677v-80zM778 405h-677v80h677v-80z" />
    <glyph glyph-name="bracketleft" unicode="[" horiz-adv-x="598" 
d="M586 -281h-417v1552h417v-52h-303v-1449h303v-51z" />
    <glyph glyph-name="bracketright" unicode="]" horiz-adv-x="598" 
d="M592 -281h-412v51h302v1449h-302v52h412v-1552z" />
    <glyph glyph-name="braceleft" unicode="{" horiz-adv-x="981" 
d="M832 -320q-152 27 -252 131.5t-100 254.5q0 61 22.5 161.5t22.5 127.5q0 97 -69.5 161t-168.5 75v38q239 52 239 219q0 47 -21.5 147.5t-21.5 162.5q0 151 98.5 255t250.5 129v-40q-94 -14 -158 -75.5t-64 -152.5q0 -46 21.5 -160.5t21.5 -164.5q0 -224 -286 -336
q283 -116 283 -350q0 -49 -22 -155t-22 -159q0 -180 226 -233v-36z" />
    <glyph glyph-name="braceright" unicode="}" horiz-adv-x="981" 
d="M695 593q-239 -52 -239 -220q0 -52 21.5 -152.5t21.5 -156.5q0 -151 -98.5 -255t-250.5 -129v40q94 14 157.5 75t63.5 153q0 48 -21 163t-21 162q0 223 285 336q-282 116 -282 349q0 55 22 161t22 154q0 180 -226 233v36q152 -28 252 -131.5t100 -254.5q0 -57 -22.5 -157
t-22.5 -133q0 -97 68.5 -158.5t169.5 -77.5v-37z" />
    <glyph glyph-name="guillemotleft" unicode="&#xab;" horiz-adv-x="748" 
d="M469 -70q-7 -11 -53 -48q-229 197 -229 406.5t229 403.5q35 -21 53 -45q-170 -192 -170 -360t170 -357zM747 -70q-9 -11 -56 -48q-229 200 -229 406t228 405q36 -22 57 -46q-174 -193 -174 -360.5t174 -356.5z" />
    <glyph glyph-name="guillemotright" unicode="&#xbb;" horiz-adv-x="747" 
d="M462 -70q170 189 170 357t-170 360q19 24 54 45q229 -194 229 -403.5t-229 -406.5q-46 37 -54 48zM185 -70q173 189 173 356.5t-173 360.5q20 24 57 46q227 -199 227 -405t-228 -406q-47 37 -56 48z" />
    <glyph glyph-name="multiply" unicode="&#xd7;" horiz-adv-x="946" 
d="M802 219l-58 -57l-277 275l-277 -275l-59 57l275 278l-275 278l62 56l274 -276l277 276l58 -56l-279 -278z" />
    <glyph glyph-name="divide" unicode="&#xf7;" horiz-adv-x="876" 
d="M438 46q-36 0 -62 26t-26 62.5t25.5 62.5t62.5 26t62.5 -26t25.5 -62.5t-26 -62.5t-62 -26zM438 466q-37 0 -62.5 26t-25.5 62.5t26 62.5t62 26t62 -26t26 -62.5t-25.5 -62.5t-62.5 -26zM778 311h-677v80h677v-80z" />
    <glyph glyph-name="zeronojoin" unicode="&#x200c;" horiz-adv-x="32" 
 />
    <glyph glyph-name="zerojoin" unicode="&#x200d;" horiz-adv-x="32" 
 />
    <glyph glyph-name="lefttoright" unicode="&#x200e;" horiz-adv-x="32" 
d="M213 1132l-95 -96l-24 20l63 62h-125v-1118h-32v1148h153l-59 58l24 22z" />
    <glyph glyph-name="righttoleft" unicode="&#x200f;" horiz-adv-x="32" 
d="M32 0h-32v1118h-124l60 -62l-20 -20l-99 96l99 96l20 -22l-58 -58h154v-1148z" />
    <glyph glyph-name="quoteleft" unicode="&#x2018;" horiz-adv-x="491" 
d="M467 1486q-89 -59 -159.5 -152.5t-70.5 -185.5q0 -55 32 -98q39 47 90 47q102 0 102 -100q0 -59 -45.5 -90.5t-117 -31.5t-122.5 50.5t-51 132.5q0 141 102.5 275.5t239.5 207.5v-55z" />
    <glyph glyph-name="quoteright" unicode="&#x2019;" horiz-adv-x="491" 
d="M444 1353q0 -143 -99 -271t-240 -210v56q228 162 228 338q0 62 -33 101q-33 -49 -84.5 -49t-80 28t-28.5 77.5t46 82.5t119.5 33t122.5 -50t49 -136z" />
    <glyph glyph-name="quotedblleft" unicode="&#x201c;" horiz-adv-x="650" 
d="M302 1146q-13 -6 -41 -26q-52 -51 -52 -95q82 -22 82 -112q0 -45 -31.5 -78t-80 -33t-79 40t-30.5 94q0 201 203 359q0 -83 2.5 -108t26.5 -41zM572 1146q-13 -6 -41 -26q-52 -51 -52 -95q82 -22 82 -112q0 -45 -31.5 -78t-80 -33t-79 40t-30.5 94q0 201 203 359
q0 -83 2.5 -108t26.5 -41z" />
    <glyph glyph-name="quotedblright" unicode="&#x201d;" horiz-adv-x="650" 
d="M310 1151q0 -201 -203 -359q0 83 -2.5 108t-26.5 41q13 6 41 26q52 51 52 95q-82 22 -82 112q0 46 31 78.5t81 32.5t79.5 -39t29.5 -95zM580 1151q0 -201 -203 -359q0 83 -2.5 108t-26.5 41q13 6 41 26q52 51 52 95q-82 22 -82 112q0 46 31 78.5t81 32.5t79.5 -39
t29.5 -95z" />
    <glyph glyph-name="guilsinglleft" unicode="&#x2039;" horiz-adv-x="512" 
d="M457 966l-228 -382l222 -380v-75l-383 455l389 457v-75z" />
    <glyph glyph-name="guilsinglright" unicode="&#x203a;" horiz-adv-x="512" 
d="M457 586l-393 -457v75l231 382l-222 381v77z" />
    <glyph glyph-name="u060C" unicode="&#x60c;" horiz-adv-x="356" 
d="M355 1h-161v128q0 196 137 265l18 -40q-94 -52 -94 -185h100v-168z" />
    <glyph glyph-name="u061B" unicode="&#x61b;" horiz-adv-x="361" 
d="M355 295h-161v128q0 196 137 265l18 -40q-94 -52 -94 -185h100v-168zM360 1h-165v163h165v-163z" />
    <glyph glyph-name="u061F" unicode="&#x61f;" horiz-adv-x="929" 
d="M706 -38h-176v176h176v-176zM926 875l-143 -20q-45 186 -234 186q-82 0 -140 -58.5t-58 -131.5t44.5 -134t136.5 -140l80 -69q76 -66 76 -240v-13h-123q-2 56 -4 72.5t-19.5 57t-114.5 118.5l-107 86q-124 110 -124 255t107 243t257 98t246.5 -84.5t119.5 -225.5z" />
    <glyph glyph-name="u0640" unicode="&#x640;" horiz-adv-x="701" 
d="M732 1h-764v149h764v-149z" />
    <glyph glyph-name="u064B" unicode="&#x64b;" 
d="M497 1636l-451 -121l-18 74l451 124zM497 1471l-451 -121l-18 74l451 124z" />
    <glyph glyph-name="u064C" unicode="&#x64c;" 
d="M448 1676q0 54 -64 54q-23 0 -46 -26.5t-23 -50.5q0 -54 51 -80q82 40 82 103zM517 1706q0 -104 -97 -187l65 -44l-51 -56q-47 27 -73 56q-136 -88 -298 -126l-32 66q10 4 28 12q64 56 64 106q0 28 -29.5 28t-66.5 -24l-19 44q35 41 107 41t72 -64q0 -57 -47 -104
q-1 -4 4 -6q109 35 157 76q-47 57 -47 109.5t47.5 112.5t98.5 60t84 -28t33 -72z" />
    <glyph glyph-name="u064D" unicode="&#x64d;" 
d="M508 -923l-451 -121l-18 74l451 124zM508 -1088l-451 -120l-18 73l451 125z" />
    <glyph glyph-name="u064E" unicode="&#x64e;" 
d="M508 1472l-451 -121l-18 74l451 124z" />
    <glyph glyph-name="u064F" unicode="&#x64f;" 
d="M348 1569q78 55 78 107.5t-63 52.5q-26 0 -50.5 -29.5t-24.5 -56.5q0 -46 60 -74zM500 1704q0 -107 -101 -189l65 -45l-48 -52q-32 19 -69 61q-134 -94 -303 -130l-30 65q185 60 261 124q-41 58 -41 103.5t47.5 105.5t98.5 60t85.5 -29t34.5 -74z" />
    <glyph glyph-name="u0650" unicode="&#x650;" 
d="M508 -926l-451 -121l-18 73l451 125z" />
    <glyph glyph-name="u0651" unicode="&#x651;" 
d="M487 1699q21 -70 21 -132q0 -173 -138 -173q-61 0 -103 96q-74 -140 -163.5 -140t-89.5 107q0 71 44 148h49q-19 -58 -19 -89q0 -53 56 -53q79 0 104 173l61 22q3 -76 9 -98q15 -57 64 -57q59 0 59 78q0 40 -18 97z" />
    <glyph glyph-name="u0652" unicode="&#x652;" 
d="M268 1449q36 0 66 20t30 60t-35 67.5t-81 27.5q-24 0 -45.5 -34.5t-21.5 -59.5q0 -81 87 -81zM119 1493q0 105 46 162t98 57t111 -50t59 -127t-47 -131.5t-116 -54.5t-110 40.5t-41 103.5z" />
    <glyph glyph-name="uE820" unicode="&#xe820;" 
d="M516 974l-451 -121l-18 74l451 124z" />
    <glyph glyph-name="uE821" unicode="&#xe821;" 
d="M359 1070q78 55 78 107.5t-63 52.5q-26 0 -50.5 -29.5t-24.5 -56.5q0 -46 60 -74zM511 1205q0 -107 -101 -189l65 -45l-48 -52q-32 19 -69 61q-134 -94 -303 -130l-30 65q185 60 261 124q-41 58 -41 103.5t47.5 105.5t98.5 60t85.5 -29t34.5 -74z" />
    <glyph glyph-name="uE822" unicode="&#xe822;" 
d="M277 955q36 0 66 20t30 60t-35 67.5t-81 27.5q-24 0 -45.5 -34.5t-21.5 -59.5q0 -81 87 -81zM128 999q0 105 46 162t98 57t111 -50t59 -127t-47 -131.5t-116 -54.5t-110 40.5t-41 103.5z" />
    <glyph glyph-name="uE823" unicode="&#xe823;" 
d="M495 1138l-451 -121l-18 74l451 124zM495 973l-451 -121l-18 74l451 124z" />
    <glyph glyph-name="uE824" unicode="&#xe824;" 
d="M469 1184q0 54 -64 54q-23 0 -46 -26.5t-23 -50.5q0 -54 51 -80q82 40 82 103zM538 1214q0 -104 -97 -187l65 -44l-51 -56q-47 27 -73 56q-136 -88 -298 -126l-32 66q10 4 28 12q64 56 64 106q0 28 -29.5 28t-66.5 -24l-19 44q35 41 107 41t72 -64q0 -57 -47 -104
q-1 -4 4 -6q109 35 157 76q-47 57 -47 109.5t47.5 112.5t98.5 60t84 -28t33 -72z" />
    <glyph glyph-name="uE825" unicode="&#xe825;" 
d="M492 1217q21 -70 21 -132q0 -173 -138 -173q-61 0 -103 96q-74 -140 -163.5 -140t-89.5 107q0 71 44 148h49q-19 -58 -19 -89q0 -53 56 -53q79 0 104 173l61 22q3 -76 9 -98q15 -57 64 -57q59 0 59 78q0 40 -18 97z" />
    <glyph glyph-name="uE826" unicode="&#xe826;" 
d="M422 -348l-451 -121l-18 73l451 125z" />
    <glyph glyph-name="uE827" unicode="&#xe827;" 
d="M410 -351l-451 -121l-18 74l451 124zM410 -516l-451 -120l-18 73l451 125z" />
    <glyph glyph-name="uE828" unicode="&#xe828;" 
d="M488 1202q21 -70 21 -132q0 -173 -138 -173q-61 0 -103 96q-74 -140 -163.5 -140t-89.5 107q0 71 44 148h49q-19 -58 -19 -89q0 -53 56 -53q79 0 104 173l61 22q3 -76 9 -98q15 -57 64 -57q59 0 59 78q0 40 -18 97zM514 1291l-451 -121l-18 74l451 124z" />
    <glyph glyph-name="uE829" unicode="&#xe829;" 
d="M500 1202q21 -70 21 -132q0 -173 -138 -173q-61 0 -103 96q-74 -140 -163.5 -140t-89.5 107q0 71 44 148h49q-19 -58 -19 -89q0 -53 56 -53q79 0 104 173l61 22q3 -76 9 -98q15 -57 64 -57q59 0 59 78q0 40 -18 97zM358 1386q78 55 78 107.5t-63 52.5q-26 0 -50.5 -29.5
t-24.5 -56.5q0 -46 60 -74zM510 1521q0 -107 -101 -189l65 -45l-48 -52q-32 19 -69 61q-134 -94 -303 -130l-30 65q185 60 261 124q-41 58 -41 103.5t47.5 105.5t98.5 60t85.5 -29t34.5 -74z" />
    <glyph glyph-name="uE82A" unicode="&#xe82a;" 
d="M493 1207q21 -70 21 -132q0 -173 -138 -173q-61 0 -103 96q-74 -140 -163.5 -140t-89.5 107q0 71 44 148h49q-19 -58 -19 -89q0 -53 56 -53q79 0 104 173l61 22q3 -76 9 -98q15 -57 64 -57q59 0 59 78q0 40 -18 97zM503 1476l-451 -121l-18 74l451 124zM503 1311
l-451 -121l-18 74l451 124z" />
    <glyph glyph-name="uE82B" unicode="&#xe82b;" 
d="M488 1215q21 -70 21 -132q0 -173 -138 -173q-61 0 -103 96q-74 -140 -163.5 -140t-89.5 107q0 71 44 148h49q-19 -58 -19 -89q0 -53 56 -53q79 0 104 173l61 22q3 -76 9 -98q15 -57 64 -57q59 0 59 78q0 40 -18 97zM441 1493q0 54 -64 54q-23 0 -46 -26.5t-23 -50.5
q0 -54 51 -80q82 40 82 103zM510 1523q0 -104 -97 -187l65 -44l-51 -56q-47 27 -73 56q-136 -88 -298 -126l-32 66q10 4 28 12q64 56 64 106q0 28 -29.5 28t-66.5 -24l-19 44q35 41 107 41t72 -64q0 -57 -47 -104q-1 -4 4 -6q109 35 157 76q-47 57 -47 109.5t47.5 112.5
t98.5 60t84 -28t33 -72z" />
    <glyph glyph-name="uE82C" unicode="&#xe82c;" 
d="M499 1405q21 -70 21 -132q0 -173 -138 -173q-61 0 -103 96q-74 -140 -163.5 -140t-89.5 107q0 71 44 148h49q-19 -58 -19 -89q0 -53 56 -53q79 0 104 173l61 22q3 -76 9 -98q15 -57 64 -57q59 0 59 78q0 40 -18 97zM523 975l-451 -121l-18 73l451 125z" />
    <glyph glyph-name="uE82D" unicode="&#xe82d;" 
d="M483 1553q21 -70 21 -132q0 -173 -138 -173q-61 0 -103 96q-74 -140 -163.5 -140t-89.5 107q0 71 44 148h49q-19 -58 -19 -89q0 -53 56 -53q79 0 104 173l61 22q3 -76 9 -98q15 -57 64 -57q59 0 59 78q0 40 -18 97zM505 1130l-451 -121l-18 74l451 124zM505 965
l-451 -120l-18 73l451 125z" />
    <glyph glyph-name="u0621" unicode="&#x621;" horiz-adv-x="807" 
d="M806 153l-612 -158v103l159 64q-67 65 -67 160.5t65.5 164.5t155.5 69q132 0 201 -79l-40 -98q-92 51 -145.5 51t-95.5 -24t-42 -62q0 -60 61 -87.5t109.5 -27.5t250.5 56v-132z" />
    <glyph glyph-name="periodcentered" unicode="&#xb7;" horiz-adv-x="405" 
d="M290 854q36 -35 36 -85.5t-35.5 -85.5t-85 -35t-85 35.5t-35.5 84.5t34.5 85t84.5 36t86 -35z" />
    <glyph glyph-name="periodcentered" unicode="&#x2d9;" horiz-adv-x="405" 
d="M290 854q36 -35 36 -85.5t-35.5 -85.5t-85 -35t-85 35.5t-35.5 84.5t34.5 85t84.5 36t86 -35z" />
    <glyph glyph-name="periodcentered" unicode="&#x2219;" horiz-adv-x="405" 
d="M290 854q36 -35 36 -85.5t-35.5 -85.5t-85 -35t-85 35.5t-35.5 84.5t34.5 85t84.5 36t86 -35z" />
  </font>
</defs>
</svg>
