<?xml version="1.0" encoding="UTF-8"?>
<svg width="100px" height="100px" viewBox="0 0 100 100" version="1.1" xmlns="http://www.w3.org/2000/svg" xmlns:xlink="http://www.w3.org/1999/xlink">
    <!-- Generator: Sketch 48.2 (47327) - http://www.bohemiancoding.com/sketch -->
    <title>circle</title>
    <desc>Created with Sketch.</desc>
    <defs></defs>
    <g id="Artboard-1" stroke="none" stroke-width="1" fill="none" fill-rule="evenodd" transform="translate(-295.000000, -337.000000)">
        <g id="circle" transform="translate(295.000000, 337.000000)" fill="#DF5818">
            <path d="M73.2002,77.2588 C74.6182,77.9358 73.8152,84.1008 66.5382,84.1008 C55.9912,84.1008 50.7942,60.5828 50.7942,60.5828 C50.7942,60.5828 47.6092,61.8108 44.8292,62.6758 C43.1742,69.2738 41.3452,75.5538 40.6462,77.2648 C40.0092,78.8448 30.4782,80.2798 31.8452,74.9448 C33.2152,69.6108 35.3972,61.2178 36.9782,55.5298 C38.2842,50.8428 41.2872,39.2878 39.5082,36.0478 C39.5082,36.0478 41.7302,33.7818 44.8122,33.7818 C47.3502,33.7818 49.8392,34.5028 49.8392,38.8118 C49.8392,40.7598 49.0022,44.0728 46.6172,55.0428 C51.9782,53.2498 64.0722,47.7208 64.0722,37.2258 C64.0722,28.7658 59.8242,23.9808 52.5732,23.9808 C38.8252,23.9808 29.3792,37.3178 27.6002,45.7878 C27.0602,48.3698 16.1352,45.7878 19.9372,37.4998 C25.9612,24.3898 39.9202,17.6138 52.4812,17.6138 C63.7972,17.6138 74.9972,23.4308 74.9972,37.2258 C74.9972,51.0008 58.7592,57.7448 58.7592,57.7448 C58.7592,57.7448 64.0292,72.8758 73.2002,77.2588 M49.9992,-0.0002 C22.3852,-0.0002 0.0002,22.3878 0.0002,49.9998 C0.0002,77.6178 22.3852,99.9998 49.9992,99.9998 C77.6152,99.9998 100.0002,77.6178 100.0002,49.9998 C100.0002,22.3878 77.6152,-0.0002 49.9992,-0.0002" id="Fill-1"></path>
        </g>
    </g>
</svg>