<?xml version="1.0" encoding="utf-8"?>
<!-- Generator: Adobe Illustrator 15.1.0, SVG Export Plug-In . SVG Version: 6.00 Build 0)  -->
<!DOCTYPE svg PUBLIC "-//W3C//DTD SVG 1.0//EN" "http://www.w3.org/TR/2001/REC-SVG-20010904/DTD/svg10.dtd">
<svg version="1.0" id="Layer_1" xmlns="http://www.w3.org/2000/svg" xmlns:xlink="http://www.w3.org/1999/xlink" x="0px" y="0px"
	 width="792px" height="612px" viewBox="0 0 792 612" enable-background="new 0 0 792 612" xml:space="preserve">
<g>
	<polygon fill="#E44F26" points="75.383,467.266 48.313,163.646 345.763,163.646 318.665,467.217 196.856,500.986 	"/>
	<polygon fill="#F1662A" points="197.038,475.175 295.465,447.887 318.623,188.471 197.038,188.471 	"/>
	<polygon fill="#EBEBEB" points="197.038,301.08 147.763,301.08 144.359,262.948 197.038,262.948 197.038,225.709 196.909,225.709 
		103.663,225.709 104.555,235.7 113.707,338.316 197.038,338.316 	"/>
	<polygon fill="#EBEBEB" points="197.038,397.788 196.875,397.834 155.403,386.635 152.751,356.937 132.6,356.937 115.371,356.937 
		120.588,415.404 196.866,436.58 197.038,436.532 	"/>
	<path fill="#010101" d="M75.988,81.135h18.924v18.696h17.311V81.135h18.925v56.618h-18.924v-18.958h-17.31v18.958H75.988
		L75.988,81.135L75.988,81.135z"/>
	<path fill="#010101" d="M156.032,99.91h-16.66V81.135h52.252V99.91h-16.667v37.843h-18.924V99.91H156.032z"/>
	<path fill="#010101" d="M199.917,81.135h19.733l12.137,19.894l12.127-19.894h19.739v56.618h-18.846V109.69l-13.021,20.13h-0.325
		l-13.028-20.13v28.063h-18.517V81.135z"/>
	<path fill="#010101" d="M273.071,81.135H292v37.903h26.612v18.714h-45.542V81.135z"/>
	<polygon fill="#FFFFFF" points="196.909,301.08 196.909,338.316 242.763,338.316 238.441,386.61 196.909,397.82 196.909,436.562 
		273.249,415.404 273.808,409.114 282.559,311.079 283.467,301.08 273.433,301.08 	"/>
	<polygon fill="#FFFFFF" points="196.909,225.709 196.909,248.837 196.909,262.856 196.909,262.948 286.736,262.948 
		286.736,262.948 286.856,262.948 287.603,254.578 289.299,235.7 290.19,225.709 	"/>
</g>
<g>
	<path fill="#131313" d="M685.164,96.681h-24.688l25.674,27.859v13.261h-52.882v-15.526h25.669l-25.669-27.86v-13.28h51.896V96.681
		L685.164,96.681z M622.786,96.681h-24.688l25.673,27.859v13.261h-52.882v-15.526h25.672l-25.672-27.86v-13.28h51.897V96.681z
		 M561.018,97.312h-26.64v24.313h26.64v16.176h-45.574V81.135h45.574V97.312z"/>
</g>
<polygon fill="#1572B6" points="479.142,467.29 452.071,163.67 749.521,163.67 722.425,467.241 600.614,501.011 "/>
<polygon fill="#33A9DC" points="600.798,475.199 699.225,447.911 722.382,188.496 600.798,188.496 "/>
<g>
	<polygon fill="#FFFFFF" points="600.797,298.496 650.072,298.496 653.475,260.364 600.797,260.364 600.797,223.125 
		600.926,223.125 694.172,223.125 693.279,233.116 684.127,335.732 600.797,335.732 	"/>
	<polygon fill="#EBEBEB" points="601.02,395.204 600.857,395.25 559.385,384.051 556.733,354.353 536.582,354.353 519.354,354.353 
		524.57,412.82 600.848,433.996 601.02,433.948 	"/>
	<polygon fill="#FFFFFF" points="646.907,334.156 642.423,384.026 600.891,395.236 600.891,433.978 677.23,412.82 677.79,406.53 
		684.268,334.156 	"/>
	<polygon fill="#EBEBEB" points="600.926,223.125 600.926,246.253 600.926,260.272 600.926,260.364 511.098,260.364 
		511.098,260.364 510.979,260.364 510.232,251.994 508.535,233.116 507.645,223.125 	"/>
	<polygon fill="#EBEBEB" points="600.797,298.5 600.797,321.629 600.797,335.646 600.797,335.738 559.969,335.738 559.969,335.738 
		559.85,335.738 559.104,327.369 557.406,308.491 556.516,298.5 	"/>
</g>
</svg>
